<svg width="100%" height="100%" viewBox="0 0 100 100" version="1.1" xmlns="http://www.w3.org/2000/svg" xmlns:xlink="http://www.w3.org/1999/xlink" xml:space="preserve" style="fill-rule:evenodd;clip-rule:evenodd;stroke-linejoin:round;stroke-miterlimit:2;">
    <path d="M5.222,56.332C5.344,56.697 5.607,57 5.952,57.173C6.155,57.275 6.378,57.327 6.603,57.327C6.758,57.327 6.913,57.302 7.062,57.252L21.147,52.565L22.504,56.644C22.627,57.01 22.889,57.313 23.235,57.485C23.438,57.588 23.661,57.64 23.886,57.64C24.041,57.64 24.195,57.615 24.345,57.565L54.464,47.541L54.464,72.824C54.464,76.835 57.728,80.099 61.74,80.099L97.09,80.099L97.09,92.208C97.09,93.012 97.741,93.663 98.545,93.663C99.349,93.663 100,93.012 100,92.208L100,49.729C100,48.925 99.349,48.273 98.545,48.273C97.741,48.273 97.09,48.925 97.09,49.729L97.09,65.548L69.015,65.548L69.015,42.698L90.465,35.559C90.831,35.438 91.134,35.175 91.307,34.83C91.479,34.485 91.508,34.086 91.387,33.719L82.605,7.334C82.351,6.572 81.526,6.156 80.765,6.413L14.646,28.419C13.883,28.672 13.471,29.496 13.724,30.259L15.081,34.338L0.997,39.025C0.234,39.279 -0.178,40.103 0.074,40.866L5.222,56.332ZM97.09,68.458L67.56,68.458C66.756,68.458 66.105,67.807 66.105,67.003L66.105,43.667L57.374,46.572L57.374,72.824C57.374,75.231 59.332,77.189 61.74,77.189L97.09,77.189L97.09,68.458ZM80.303,9.634L88.165,33.258L24.806,54.344L23.45,50.266C23.449,50.266 23.45,50.266 23.449,50.265C23.449,50.265 23.449,50.264 23.449,50.264L16.945,30.72L80.303,9.634ZM16,37.099L20.228,49.804L7.524,54.032L3.296,41.327L16,37.099ZM59.037,30.261C62.15,30.261 64.684,27.728 64.684,24.614C64.684,21.499 62.15,18.966 59.037,18.966C55.923,18.966 53.389,21.499 53.389,24.614C53.389,27.728 55.923,30.261 59.037,30.261ZM59.037,21.877C60.546,21.877 61.774,23.105 61.774,24.614C61.774,26.123 60.546,27.351 59.037,27.351C57.528,27.351 56.3,26.123 56.3,24.614C56.3,23.105 57.528,21.877 59.037,21.877ZM73.557,25.253C76.671,25.253 79.204,22.72 79.204,19.606C79.204,16.492 76.671,13.959 73.557,13.959C70.444,13.959 67.91,16.492 67.91,19.606C67.91,22.72 70.444,25.253 73.557,25.253ZM73.557,16.869C75.066,16.869 76.294,18.097 76.294,19.606C76.294,21.115 75.066,22.343 73.557,22.343C72.048,22.343 70.82,21.115 70.82,19.606C70.82,18.097 72.048,16.869 73.557,16.869Z" style="fill:#4c5563;"/>
</svg>
