<svg width="100%" height="100%" viewBox="0 0 100 100" version="1.1" xmlns="http://www.w3.org/2000/svg" xmlns:xlink="http://www.w3.org/1999/xlink" xml:space="preserve" style="fill-rule:evenodd;clip-rule:evenodd;stroke-linejoin:round;stroke-miterlimit:2;">
    <path d="M90,10.816C90,10.365 89.635,10 89.184,10L10.816,10C10.365,10 10,10.365 10,10.816L10,89.184C10,89.635 10.365,90 10.816,90L89.184,90C89.635,90 90,89.635 90,89.184L90,10.816ZM13.265,13.265L13.265,86.735L86.735,86.735L86.735,13.265L13.265,13.265ZM58.98,35.306C58.98,34.855 58.614,34.49 58.163,34.49L41.837,34.49C41.386,34.49 41.02,34.855 41.02,35.306L41.02,64.694C41.02,65.145 41.386,65.51 41.837,65.51L58.163,65.51C58.614,65.51 58.98,65.145 58.98,64.694L58.98,35.306ZM44.286,37.755L44.286,62.245L55.714,62.245L55.714,37.755L44.286,37.755ZM22.245,45.918C19.99,45.918 18.163,47.745 18.163,50C18.163,52.255 19.99,54.082 22.245,54.082C24.5,54.082 26.327,52.255 26.327,50C26.327,47.745 24.5,45.918 22.245,45.918ZM77.755,45.918C75.5,45.918 73.673,47.745 73.673,50C73.673,52.255 75.5,54.082 77.755,54.082C80.01,54.082 81.837,52.255 81.837,50C81.837,47.745 80.01,45.918 77.755,45.918ZM22.245,49.184C22.695,49.184 23.061,49.55 23.061,50C23.061,50.45 22.695,50.816 22.245,50.816C21.795,50.816 21.429,50.45 21.429,50C21.429,49.55 21.795,49.184 22.245,49.184ZM77.755,49.184C78.205,49.184 78.571,49.55 78.571,50C78.571,50.45 78.205,50.816 77.755,50.816C77.305,50.816 76.939,50.45 76.939,50C76.939,49.55 77.305,49.184 77.755,49.184Z" style="fill:#4c5563;"/>
</svg>
