<svg width="100%" height="100%" viewBox="0 0 100 100" version="1.1" xmlns="http://www.w3.org/2000/svg" xmlns:xlink="http://www.w3.org/1999/xlink" xml:space="preserve" style="fill-rule:evenodd;clip-rule:evenodd;stroke-linejoin:round;stroke-miterlimit:2;">
    <path d="M35.455,60.909C35.455,61.909 34.636,62.727 33.636,62.727L32.727,62.727L32.727,63.636C32.727,64.636 31.909,65.455 30.909,65.455C29.909,65.455 29.091,64.636 29.091,63.636L29.091,62.727L28.182,62.727C27.182,62.727 26.364,61.909 26.364,60.909C26.364,59.909 27.182,59.091 28.182,59.091L33.636,59.091C34.636,59.091 35.455,59.909 35.455,60.909ZM46.364,59.091L40.909,59.091C39.909,59.091 39.091,59.909 39.091,60.909C39.091,61.909 39.909,62.727 40.909,62.727L41.818,62.727L41.818,63.636C41.818,64.636 42.636,65.455 43.636,65.455C44.636,65.455 45.455,64.636 45.455,63.636L45.455,62.727L46.364,62.727C47.364,62.727 48.182,61.909 48.182,60.909C48.182,59.909 47.364,59.091 46.364,59.091ZM59.091,59.091L53.636,59.091C52.636,59.091 51.818,59.909 51.818,60.909C51.818,61.909 52.636,62.727 53.636,62.727L54.545,62.727L54.545,63.636C54.545,64.636 55.364,65.455 56.364,65.455C57.364,65.455 58.182,64.636 58.182,63.636L58.182,62.727L59.091,62.727C60.091,62.727 60.909,61.909 60.909,60.909C60.909,59.909 60.091,59.091 59.091,59.091ZM71.818,59.091L66.364,59.091C65.364,59.091 64.545,59.909 64.545,60.909C64.545,61.909 65.364,62.727 66.364,62.727L67.273,62.727L67.273,63.636C67.273,64.636 68.091,65.455 69.091,65.455C70.091,65.455 70.909,64.636 70.909,63.636L70.909,62.727L71.818,62.727C72.818,62.727 73.636,61.909 73.636,60.909C73.636,59.909 72.818,59.091 71.818,59.091ZM30.909,55.455C31.909,55.455 32.727,54.636 32.727,53.636L32.727,50.909C32.727,49.909 31.909,49.091 30.909,49.091C29.909,49.091 29.091,49.909 29.091,50.909L29.091,53.636C29.091,54.636 29.909,55.455 30.909,55.455ZM43.636,55.455C44.636,55.455 45.455,54.636 45.455,53.636L45.455,50.909C45.455,49.909 44.636,49.091 43.636,49.091C42.636,49.091 41.818,49.909 41.818,50.909L41.818,53.636C41.818,54.636 42.636,55.455 43.636,55.455ZM56.364,55.455C57.364,55.455 58.182,54.636 58.182,53.636L58.182,50.909C58.182,49.909 57.364,49.091 56.364,49.091C55.364,49.091 54.545,49.909 54.545,50.909L54.545,53.636C54.545,54.636 55.364,55.455 56.364,55.455ZM69.091,55.455C70.091,55.455 70.909,54.636 70.909,53.636L70.909,50.909C70.909,49.909 70.091,49.091 69.091,49.091C68.091,49.091 67.273,49.909 67.273,50.909L67.273,53.636C67.273,54.636 68.091,55.455 69.091,55.455ZM19.091,40L80.909,40C81.909,40 82.727,40.818 82.727,41.818L82.727,72.727C82.727,73.727 81.909,74.545 80.909,74.545L19.091,74.545C18.091,74.545 17.273,73.727 17.273,72.727L17.273,41.818C17.273,40.818 18.091,40 19.091,40ZM20.909,70.909L79.091,70.909L79.091,43.636L20.909,43.636L20.909,70.909ZM90,30.909L90,83.636C90,84.636 89.182,85.455 88.182,85.455L11.818,85.455C10.818,85.455 10,84.636 10,83.636L10,30.909C10,29.909 10.818,29.091 11.818,29.091L31.818,29.091L31.818,21.818C31.818,19.818 30.182,18.182 28.182,18.182L11.818,18.182C10.818,18.182 10,17.364 10,16.364C10,15.364 10.818,14.545 11.818,14.545L28.182,14.545C32.182,14.545 35.455,17.818 35.455,21.818L35.455,29.091L42.727,29.091L42.727,16.364C42.727,15.364 43.545,14.545 44.545,14.545C45.545,14.545 46.364,15.364 46.364,16.364L46.364,29.091L53.636,29.091L53.636,16.364C53.636,15.364 54.455,14.545 55.455,14.545C56.455,14.545 57.273,15.364 57.273,16.364L57.273,29.091L64.545,29.091L64.545,21.818C64.545,17.818 67.818,14.545 71.818,14.545L88.182,14.545C89.182,14.545 90,15.364 90,16.364C90,17.364 89.182,18.182 88.182,18.182L71.818,18.182C69.818,18.182 68.182,19.818 68.182,21.818L68.182,29.091L88.182,29.091C89.182,29.091 90,29.909 90,30.909ZM86.364,32.727L13.636,32.727L13.636,81.818L86.364,81.818L86.364,32.727Z" style="fill:#4c5563;fill-rule:nonzero;"/>
</svg>
