<svg width="100%" height="100%" viewBox="0 0 100 100" version="1.1" xmlns="http://www.w3.org/2000/svg" xmlns:xlink="http://www.w3.org/1999/xlink" xml:space="preserve" style="fill-rule:evenodd;clip-rule:evenodd;stroke-linejoin:round;stroke-miterlimit:2;">
    <path d="M4.688,78.125L68.75,78.125L68.75,81.25C68.75,84.697 71.553,87.5 75,87.5L96.875,87.5C97.737,87.5 98.438,86.802 98.438,85.938C98.438,85.073 97.737,84.375 96.875,84.375L75,84.375C73.277,84.375 71.875,82.973 71.875,81.25L71.875,78.125L95.313,78.125C97.897,78.125 100,76.022 100,73.438L100,17.188C100,14.603 97.897,12.5 95.313,12.5L4.688,12.5C2.103,12.5 0,14.603 0,17.188L0,73.438C0,76.022 2.103,78.125 4.688,78.125ZM3.125,17.188C3.125,16.327 3.827,15.625 4.688,15.625L95.313,15.625C96.173,15.625 96.875,16.327 96.875,17.188L96.875,73.438C96.875,74.3 96.173,75 95.313,75L71.875,75L71.875,64.063C73.598,64.063 75,62.661 75,60.938L75,57.813L82.813,57.813C83.675,57.813 84.375,57.114 84.375,56.25L84.375,31.25C84.375,30.388 83.675,29.688 82.813,29.688L57.813,29.688C56.95,29.688 56.25,30.388 56.25,31.25L56.25,56.25C56.25,57.114 56.95,57.813 57.813,57.813L65.625,57.813L65.625,60.938C65.625,62.661 67.027,64.063 68.75,64.063L68.75,75L4.688,75C3.827,75 3.125,74.3 3.125,73.438L3.125,17.188ZM20.313,68.75C21.175,68.75 21.875,69.45 21.875,70.313C21.875,71.175 21.175,71.875 20.313,71.875C19.45,71.875 18.75,71.175 18.75,70.313C18.75,69.45 19.45,68.75 20.313,68.75ZM25,70.313C25,71.177 25.7,71.875 26.563,71.875L65.625,71.875C66.488,71.875 67.188,71.177 67.188,70.313C67.188,69.448 66.488,68.75 65.625,68.75L26.563,68.75C25.7,68.75 25,69.448 25,70.313ZM7.813,71.875L14.063,71.875C14.925,71.875 15.625,71.177 15.625,70.313C15.625,69.448 14.925,68.75 14.063,68.75L9.375,68.75L9.375,21.875L90.625,21.875L90.625,68.75L75,68.75C74.138,68.75 73.438,69.448 73.438,70.313C73.438,71.177 74.138,71.875 75,71.875L92.188,71.875C93.05,71.875 93.75,71.177 93.75,70.313L93.75,20.313C93.75,19.45 93.05,18.75 92.188,18.75L7.813,18.75C6.95,18.75 6.25,19.45 6.25,20.313L6.25,70.313C6.25,71.177 6.95,71.875 7.813,71.875ZM71.875,57.813L71.875,60.938L68.75,60.938L68.75,57.813L71.875,57.813ZM43.75,56.25L43.75,31.25C43.75,30.388 43.05,29.688 42.188,29.688L17.188,29.688C16.325,29.688 15.625,30.388 15.625,31.25L15.625,56.25C15.625,57.114 16.325,57.813 17.188,57.813L42.188,57.813C43.05,57.813 43.75,57.114 43.75,56.25ZM59.375,54.688L59.375,45.313L64.063,45.313L64.063,54.688L59.375,54.688ZM66.275,43.106C65.694,42.522 64.888,42.188 64.063,42.188L59.375,42.188L59.375,32.813L81.25,32.813L81.25,42.188L76.563,42.188C75.738,42.188 74.931,42.522 74.356,43.1C73.772,43.681 73.438,44.488 73.438,45.313L73.438,54.688L67.188,54.688L67.188,45.313C67.188,44.488 66.853,43.681 66.275,43.106ZM81.25,45.313L81.25,54.688L76.563,54.688L76.563,45.313L81.25,45.313ZM40.625,54.688L18.75,54.688L18.75,32.813L40.625,32.813L40.625,54.688ZM21.875,51.563L25,51.563C25.862,51.563 26.563,50.863 26.563,50C26.563,49.138 25.862,48.438 25,48.438L21.875,48.438C21.013,48.438 20.313,49.138 20.313,50C20.313,50.863 21.013,51.563 21.875,51.563ZM34.375,51.563L37.5,51.563C38.362,51.563 39.063,50.863 39.063,50C39.063,49.138 38.362,48.438 37.5,48.438L34.375,48.438C33.513,48.438 32.813,49.138 32.813,50C32.813,50.863 33.513,51.563 34.375,51.563ZM29.688,42.188C30.55,42.188 31.25,41.488 31.25,40.625L31.25,37.5C31.25,36.638 30.55,35.937 29.688,35.937C28.825,35.937 28.125,36.638 28.125,37.5L28.125,40.625C28.125,41.488 28.825,42.188 29.688,42.188Z" style="fill:#4c5563;fill-rule:nonzero;"/>
</svg>
