<svg width="100%" height="100%" viewBox="0 0 100 100" version="1.1" xmlns="http://www.w3.org/2000/svg" xmlns:xlink="http://www.w3.org/1999/xlink" xml:space="preserve" style="fill-rule:evenodd;clip-rule:evenodd;stroke-linejoin:round;stroke-miterlimit:2;">
    <path d="M85.312,22.951L85.312,9.836C85.312,9.627 85.271,9.42 85.192,9.226L81.829,1.03C81.574,0.409 80.954,-0.001 80.267,0L66.815,0C66.129,-0.001 65.508,0.409 65.253,1.03L61.89,9.226C61.811,9.42 61.771,9.627 61.771,9.836L61.771,22.951C61.77,23.152 61.808,23.351 61.882,23.539L66.782,35.957L58.468,65.138C58.429,65.28 58.409,65.426 58.408,65.574L58.408,86.885C58.407,86.963 58.413,87.041 58.424,87.118L60.106,98.593C60.224,99.397 60.938,100 61.771,100L68.497,100C69.419,100 70.178,99.26 70.178,98.361C70.178,98.283 70.173,98.205 70.161,98.128L68.497,86.769L68.497,65.879L73.541,53.092L78.586,65.879L78.586,86.769L76.921,98.128C76.91,98.205 76.904,98.283 76.904,98.361C76.904,99.26 77.663,100 78.586,100L85.312,100C86.145,100 86.858,99.397 86.977,98.593L88.658,87.118C88.67,87.041 88.675,86.963 88.675,86.885L88.675,65.574C88.674,65.425 88.654,65.278 88.614,65.134L80.301,35.954L85.201,23.534C85.274,23.348 85.312,23.15 85.312,22.951ZM11.325,68.852L11.325,93.443C11.325,93.877 11.503,94.294 11.818,94.602L16.862,99.52C17.177,99.827 17.605,100 18.051,100L31.503,100C31.949,100 32.377,99.827 32.692,99.52L37.737,94.602C38.052,94.294 38.229,93.877 38.229,93.443L38.229,68.852C38.229,68.555 38.146,68.263 37.989,68.008L34.473,62.295L36.548,62.295C37.47,62.295 38.229,61.555 38.229,60.656L38.229,54.098C38.229,53.199 37.47,52.459 36.548,52.459L13.007,52.459C12.084,52.459 11.325,53.199 11.325,54.098L11.325,60.656C11.325,61.555 12.084,62.295 13.007,62.295L15.082,62.295L11.566,68.008C11.408,68.263 11.325,68.555 11.325,68.852ZM65.15,87.118L66.558,96.721L63.228,96.721L61.771,86.769L61.771,65.797L64.547,56.054L68.397,56.993L65.245,64.985C65.171,65.173 65.133,65.373 65.134,65.574L65.134,86.885C65.133,86.963 65.139,87.041 65.15,87.118ZM85.312,65.797L85.312,86.769L83.854,96.721L80.525,96.721L81.932,87.118C81.943,87.041 81.949,86.963 81.949,86.885L81.949,65.574C81.949,65.373 81.912,65.173 81.838,64.985L78.685,56.993L82.536,56.054L85.312,65.797ZM14.688,69.307L19.003,62.295L30.552,62.295L34.866,69.307L34.866,92.764L30.807,96.721L18.747,96.721L14.688,92.764L14.688,69.307ZM21.414,68.852L18.051,68.852L18.051,91.803L21.414,91.803L21.414,68.852ZM31.503,68.852L28.14,68.852L28.14,91.803L31.503,91.803L31.503,68.852ZM14.688,59.016L14.688,55.738L34.866,55.738L34.866,59.016L14.688,59.016ZM69.615,53.91L65.446,52.895L68.809,41.092L71.739,48.525L69.615,53.91ZM81.636,52.895L77.468,53.91L65.134,22.646L65.134,10.151L67.954,3.279L71.86,3.279L71.86,6.243L68.616,14.144C68.389,14.703 68.492,15.34 68.885,15.803L76.904,25.184L76.904,36.066C76.905,36.214 76.925,36.362 76.965,36.505L81.636,52.895ZM16.862,15.913L19.733,18.711L19.733,49.18L23.096,49.18L23.096,18.033C23.096,17.598 22.918,17.181 22.603,16.874L19.94,14.277L22.682,4.918L26.872,4.918L29.615,14.277L26.951,16.874C26.636,17.181 26.459,17.598 26.459,18.033L26.459,49.18L29.822,49.18L29.822,18.711L32.692,15.913C33.124,15.493 33.288,14.875 33.121,14.303L29.758,2.828C29.552,2.126 28.889,1.639 28.14,1.639L21.414,1.639C20.665,1.639 20.002,2.126 19.797,2.828L16.434,14.303C16.266,14.875 16.431,15.493 16.862,15.913ZM73.541,26.23C74.469,26.23 75.223,26.964 75.223,27.869C75.223,28.774 74.469,29.508 73.541,29.508C72.613,29.508 71.86,28.774 71.86,27.869C71.86,26.964 72.613,26.23 73.541,26.23ZM81.949,22.646L80.267,26.908L80.267,24.59C80.268,24.207 80.13,23.836 79.879,23.541L75.727,18.689L78.194,15.803C78.587,15.34 78.69,14.703 78.463,14.144L75.223,6.243L75.223,3.279L79.129,3.279L81.949,10.151L81.949,22.646ZM73.541,10.972L74.971,14.456L73.541,16.128L72.11,14.456L73.541,10.972Z" style="fill:#4c5563;fill-rule:nonzero;"/>
</svg>
