<svg width="100%" height="100%" viewBox="0 0 150 150" version="1.1" xmlns="http://www.w3.org/2000/svg" xmlns:xlink="http://www.w3.org/1999/xlink" xml:space="preserve" style="fill-rule:evenodd;clip-rule:evenodd;stroke-linejoin:round;stroke-miterlimit:2;">
    <path d="M10.115,45.283L4.011,46.943C2.319,47.403 0.572,46.403 0.112,44.711C-0.348,43.019 0.652,41.272 2.344,40.812L18.414,36.442L22.784,52.512C23.244,54.204 22.244,55.951 20.552,56.411C18.86,56.871 17.113,55.871 16.653,54.179L15.316,49.262C11.997,57.185 10.165,65.88 10.165,75C10.165,111.835 40.07,141.741 76.906,141.741C88.939,141.741 100.232,138.551 109.987,132.967C111.508,132.096 113.451,132.624 114.322,134.146C115.193,135.667 114.664,137.61 113.143,138.481C102.457,144.597 90.087,148.094 76.906,148.094C36.564,148.094 3.812,115.342 3.812,75C3.812,64.421 6.064,54.364 10.115,45.283ZM135.02,107.823C140.511,98.13 143.647,86.928 143.647,75C143.647,38.165 113.741,8.259 76.906,8.259C62.047,8.259 48.317,13.125 37.222,21.349C35.813,22.393 33.822,22.097 32.778,20.689C31.734,19.281 32.03,17.289 33.438,16.245C45.591,7.237 60.631,1.906 76.906,1.906C117.248,1.906 150,34.658 150,75C150,88.656 146.247,101.443 139.717,112.383L145.972,111.453C147.706,111.196 149.324,112.394 149.581,114.128C149.839,115.863 148.64,117.48 146.906,117.737L130.433,120.185L127.986,103.712C127.728,101.978 128.927,100.361 130.661,100.103C132.395,99.845 134.012,101.044 134.27,102.778L135.02,107.823Z" style="fill:#93411f;"/>
    <path d="M76.906,22.299C47.819,22.299 24.205,45.914 24.205,75C24.205,104.086 47.819,127.701 76.906,127.701C105.992,127.701 129.607,104.086 129.607,75C129.607,45.914 105.992,22.299 76.906,22.299ZM76.906,32.888C100.148,32.888 119.018,51.758 119.018,75C119.018,98.242 100.148,117.112 76.906,117.112C53.663,117.112 34.794,98.242 34.794,75C34.794,51.758 53.663,32.888 76.906,32.888ZM71.612,74.956L71.612,46.515C71.612,43.593 73.984,41.221 76.906,41.221C79.828,41.221 82.2,43.593 82.2,46.515L82.2,71.905L99.818,81.825C102.364,83.258 103.268,86.489 101.834,89.036C100.4,91.582 97.169,92.485 94.623,91.051L74.346,79.635C74.305,79.612 74.264,79.588 74.223,79.564L74.214,79.559C73.41,79.084 72.776,78.428 72.335,77.672C71.892,76.917 71.632,76.042 71.613,75.109L71.612,75.099C71.611,75.051 71.611,75.004 71.612,74.956Z" style="fill:#4c5563;"/>
</svg>
