<svg width="100%" height="100%" viewBox="0 0 150 150" version="1.1" xmlns="http://www.w3.org/2000/svg" xmlns:xlink="http://www.w3.org/1999/xlink" xml:space="preserve" style="fill-rule:evenodd;clip-rule:evenodd;stroke-linejoin:round;stroke-miterlimit:2;">
    <path d="M76.848,10.11L77.398,10.139L77.964,10.237L78.587,10.431L78.892,10.563C79.098,10.66 79.299,10.773 79.49,10.901L79.956,11.255L80.21,11.491L100.568,31.849L100.997,32.342L101.158,32.569C101.286,32.761 101.399,32.961 101.496,33.167L101.709,33.697L101.843,34.187L101.933,34.782L101.95,35.211L101.95,130.094C101.95,135.561 97.511,140 92.044,140L20.717,140C15.249,140 10.811,135.561 10.811,130.094L10.811,20.016C10.811,14.548 15.249,10.11 20.717,10.11L76.848,10.11ZM72.157,19.544L20.717,19.544C20.457,19.544 20.245,19.756 20.245,20.016C20.245,20.016 20.245,130.094 20.245,130.094C20.245,130.354 20.457,130.565 20.717,130.565C20.717,130.565 92.044,130.565 92.044,130.565C92.304,130.565 92.515,130.354 92.515,130.094L92.515,39.902L82.063,39.902C76.596,39.902 72.157,35.464 72.157,29.996L72.157,19.544Z" style="fill:#4b5563;"/>
    <path d="M113.516,83.571C113.516,83.571 114.274,129.08 120.096,135.87C121.336,135.87 120.116,138.345 121.199,138.427C122.281,138.509 122.32,135.923 122.32,135.923C122.32,135.923 128.639,131.704 128.882,83.65C122.517,83.692 113.516,83.571 113.516,83.571ZM34.679,114.115L78.081,114.115C79.643,114.115 80.912,112.847 80.912,111.284C80.912,109.722 79.643,108.454 78.081,108.454L34.679,108.454C33.117,108.454 31.849,109.722 31.849,111.284C31.849,112.847 33.117,114.115 34.679,114.115ZM34.679,94.372L78.081,94.372C79.643,94.372 80.912,93.104 80.912,91.542C80.912,89.98 79.643,88.711 78.081,88.711L34.679,88.711C33.117,88.711 31.849,89.98 31.849,91.542C31.849,93.104 33.117,94.372 34.679,94.372ZM128.882,33.793L128.882,75.94L113.516,75.94L113.516,17.683C113.516,13.443 116.958,10 121.199,10C125.439,10 128.882,13.443 128.882,17.683L128.882,27.251L134.366,27.251L134.366,22.652C134.366,21.321 135.446,20.24 136.778,20.24C138.109,20.24 139.189,21.321 139.189,22.652L139.189,62.804C139.189,64.135 138.109,65.216 136.778,65.216C135.446,65.216 134.366,64.135 134.366,62.804L134.366,33.793L128.882,33.793Z" style="fill:#92400e;"/>
</svg>
