<svg width="100%" height="100%" viewBox="0 0 150 150" version="1.1" xmlns="http://www.w3.org/2000/svg" xmlns:xlink="http://www.w3.org/1999/xlink" xml:space="preserve" style="fill-rule:evenodd;clip-rule:evenodd;stroke-linejoin:round;stroke-miterlimit:2;">
    <path d="M127.767,48.94C125.425,46.766 124.589,43.421 125.76,40.41L126.93,37.734C128.77,33.553 126.429,28.87 122.08,27.532L119.404,26.863C116.227,26.027 114.052,23.184 113.885,20.006L113.718,16.996C113.551,12.48 109.369,9.135 105.021,9.971L102.178,10.473C99,10.975 95.822,9.469 94.317,6.626L92.979,3.95C90.805,-0.064 85.62,-1.234 81.941,1.442L79.599,3.114C76.756,5.121 73.244,5.121 70.735,3.114L68.394,1.442C64.714,-1.234 59.53,-0.064 57.355,3.95L56.017,6.459C54.512,9.302 51.334,10.807 48.157,10.306L45.313,9.804C40.798,8.968 36.784,12.313 36.449,16.828L36.282,19.839C36.115,23.017 33.941,25.86 30.763,26.696L27.92,27.532C23.571,28.703 21.23,33.553 23.07,37.734L24.24,40.41C25.411,43.421 24.742,46.766 22.233,48.94L20.059,50.947C16.714,53.957 16.714,59.142 20.059,62.153L22.233,64.16C24.575,66.334 25.411,69.679 24.24,72.689L23.07,75.365C21.23,79.546 23.571,84.229 27.92,85.567L30.763,86.403C33.941,87.24 36.115,90.083 36.282,93.261L36.449,96.271C36.617,100.787 40.798,104.132 45.146,103.296L47.989,102.794C51.167,102.292 54.345,103.797 55.85,106.64L57.188,109.316C59.362,113.33 64.547,114.501 68.226,111.825L70.568,110.153C73.244,108.313 76.756,108.313 79.265,110.153L81.606,111.825C85.286,114.501 90.47,113.33 92.645,109.316L93.983,106.808C95.488,103.965 98.666,102.459 101.843,102.961L104.687,103.463C109.202,104.299 113.216,100.954 113.551,96.438L113.718,93.428C113.885,90.25 116.059,87.407 119.237,86.571L122.08,85.734C126.429,84.564 128.77,79.714 126.93,75.532L125.76,72.856C124.589,69.846 125.258,66.501 127.767,64.327L129.941,62.32C133.286,59.309 133.286,54.125 129.941,51.114L127.767,48.94ZM75,13.764C98.66,13.764 117.869,32.973 117.869,56.633C117.869,80.294 98.66,99.503 75,99.503C51.34,99.503 32.131,80.294 32.131,56.633C32.131,32.973 51.34,13.764 75,13.764Z" style="fill:#4c5563;fill-rule:nonzero;"/>
    <path d="M55.913,137.102L50.681,141.462L52.3,148.065C52.55,149.311 51.304,150.307 50.183,149.685L44.327,146.196L38.472,149.809C37.35,150.432 35.98,149.435 36.354,148.19L37.973,141.587L32.741,137.226C31.744,136.354 32.243,134.735 33.613,134.735L40.465,134.236L43.081,127.883C43.58,126.637 45.199,126.637 45.698,127.883L48.314,134.236L55.166,134.735C56.412,134.735 56.91,136.354 55.913,137.102ZM86.685,137.102L81.453,141.462L83.072,148.065C83.322,149.311 82.076,150.307 80.955,149.685L75.099,146.196L69.244,149.809C68.122,150.432 66.752,149.435 67.126,148.19L68.745,141.587L63.513,137.226C62.516,136.354 63.015,134.735 64.385,134.735L71.237,134.236L73.853,127.883C74.352,126.637 75.971,126.637 76.47,127.883L79.086,134.236L85.938,134.735C87.059,134.735 87.682,136.354 86.685,137.102ZM117.333,137.102L112.1,141.462L113.72,148.065C113.969,149.311 112.723,150.307 111.602,149.685L105.871,146.196L100.016,149.809C98.895,150.432 97.524,149.435 97.898,148.19L99.517,141.587L94.285,137.226C93.288,136.354 93.787,134.735 95.157,134.735L102.009,134.236L104.625,127.883C105.124,126.637 106.743,126.637 107.242,127.883L109.858,134.236L116.71,134.735C117.831,134.735 118.329,136.354 117.333,137.102ZM88.649,38.989L96.844,47.351L77.778,66.083L69.415,74.278L61.22,65.916L53.359,58.055L61.722,49.86L69.583,57.888L88.649,38.989Z" style="fill:#93411f;fill-rule:nonzero;"/>
</svg>
