<svg width="100%" height="100%" viewBox="0 0 150 150" version="1.1" xmlns="http://www.w3.org/2000/svg" xmlns:xlink="http://www.w3.org/1999/xlink" xml:space="preserve" style="fill-rule:evenodd;clip-rule:evenodd;stroke-linejoin:round;stroke-miterlimit:2;">
    <path d="M104.683,93.804C104.498,93.99 104.321,94.102 104.203,94.161C104.115,94.205 103.997,94.249 103.878,94.297C103.89,94.586 103.902,94.904 103.902,95.049C103.902,96.319 103.617,98.195 102.904,99.292C102.532,99.865 101.841,100.294 100.819,100.022C100.497,99.937 100.059,99.703 99.63,99.431C99.378,99.954 99.074,100.457 98.811,100.906C98.406,101.597 97.81,102.373 97.252,102.914C97.047,103.113 96.775,103.277 96.451,103.384C96.495,103.565 96.546,103.745 96.592,103.92C96.784,104.66 96.857,105.358 96.72,105.908C96.423,107.1 95.703,108.051 94.675,108.645C94.658,108.672 94.643,108.698 94.631,108.72C94.43,109.077 94.187,109.39 93.895,109.609C92.959,110.311 91.927,110.61 90.792,110.704C90.658,110.79 90.522,110.873 90.394,110.961C90.385,111.033 90.379,111.105 90.376,111.17C90.352,111.718 90.372,112.327 90.372,112.569C90.372,112.695 90.446,112.814 90.499,112.938C90.66,113.317 90.841,113.689 90.949,114.036C91.27,115.071 91.451,117.723 91.29,119.419C92.443,119.62 93.305,120.04 94.539,120.223C97.044,120.593 99.241,121.132 101.152,122.89C101.332,123.057 101.619,123.408 101.695,123.983C101.72,124.174 101.72,124.595 101.717,124.834C102.815,125.836 101.92,126.989 101.769,127.141C101.45,127.462 100.781,127.766 100.092,128.082C100.333,128.302 100.623,128.544 100.872,128.695C100.934,128.732 101.006,128.768 101.079,128.8C101.28,128.683 101.503,128.558 101.726,128.469C102.335,128.224 102.957,128.186 103.505,128.375C104.169,128.604 104.606,128.992 105,129.384L105.027,129.41C105.22,129.323 105.346,129.11 105.47,128.9C105.822,128.307 106.01,127.534 105.909,126.998C105.847,126.669 105.654,126.186 105.549,125.736C105.402,125.106 105.402,124.506 105.542,124.057C105.622,123.796 105.785,123.489 106.026,123.189C106.287,122.864 106.677,122.515 106.892,122.301C107.101,122.091 107.196,121.789 107.26,121.477C107.346,121.054 107.358,120.605 107.358,120.218C107.358,119.804 107.348,119.466 107.338,119.225C107.018,118.442 107.321,117.78 107.789,117.36C108.068,117.109 108.367,116.999 108.647,116.961C109.026,116.908 109.413,116.973 109.791,117.237C109.909,117.319 110.141,117.48 110.315,117.838L110.967,118.299L111.261,118.441C112.091,118.757 113.233,118.902 114.127,118.753C114.465,118.696 114.785,118.541 115.116,118.435C115.8,118.216 116.5,118.116 117.247,118.303C118.331,118.574 119.138,119.172 119.905,119.79C120.439,120.22 120.919,120.733 121.844,120.55L122.165,120.397C122.238,119.197 122.5,118.139 123.11,117.306C123.674,116.537 124.522,115.908 125.874,115.57C126.105,115.512 126.464,115.482 126.905,115.524C127.293,115.56 127.808,115.653 128.311,115.733C128.324,115.703 128.337,115.673 128.351,115.645C128.461,115.423 128.667,115.133 129.054,114.913C129.08,114.899 129.115,114.881 129.156,114.863C129.239,114.543 129.37,114.257 129.541,114.029C130.018,113.393 130.628,113.061 131.291,112.836C131.524,112.756 131.776,112.726 131.982,112.597C131.999,112.576 132.072,112.486 132.113,112.423C132.222,112.254 132.33,112.05 132.444,111.837C132.894,110.988 133.296,109.957 133.478,109.472C133.96,108.186 134.07,106.871 134.238,105.541C134.082,105.545 133.944,105.543 133.839,105.532C132.992,105.448 131.731,105.235 130.673,104.805C129.738,104.425 128.96,103.862 128.508,103.173C128.264,102.8 128.143,102.34 128.281,101.782C128.329,101.592 128.479,101.313 128.693,100.995C127.573,101.256 126.421,101.355 125.5,100.958C125.238,100.894 124.531,100.712 124.285,100.583C124.244,100.562 124.206,100.539 124.168,100.517C124.125,100.5 124.081,100.482 124.039,100.463C123.905,100.566 123.773,100.661 123.646,100.735C122.879,101.185 121.937,101.309 121.122,101.59C120.874,101.675 120.422,101.857 120.047,101.907C119.575,101.97 119.149,101.889 118.816,101.722C118.452,101.54 118.074,101.177 117.864,100.613C117.745,100.294 117.691,99.824 117.646,99.647C117.624,99.556 117.595,99.419 117.561,99.254C117.254,99.335 116.96,99.394 116.77,99.43C115.712,99.629 114.614,99.311 113.753,98.7C113.698,98.824 113.635,98.953 113.581,99.046C113.421,99.319 113.235,99.496 113.113,99.59C112.468,100.089 111.854,99.996 111.386,99.76C111.093,99.612 110.622,99.235 110.429,98.463L110.414,98.399C109.537,98.544 108.764,98.291 108.088,97.827C107.633,97.514 107.232,97.089 106.885,96.742C106.642,96.498 106.48,96.097 106.399,95.808C105.948,95.126 105.519,94.522 105.044,93.888C104.92,93.874 104.799,93.846 104.683,93.804ZM92.893,65.19C92.857,65.202 92.811,65.216 92.781,65.228C92.43,65.358 92.08,65.561 91.736,65.717C91.07,66.018 90.412,66.168 89.783,66.094C89.906,66.183 90.001,66.282 90.077,66.369C90.369,66.707 90.529,67.128 90.456,67.654C90.429,67.844 90.359,68.108 90.165,68.385C90.121,68.448 89.998,68.587 89.911,68.682C89.821,68.84 89.73,69.004 89.649,69.167C89.359,69.747 88.967,70.341 88.849,70.964C88.805,71.196 88.973,71.457 89.124,71.604C89.438,71.909 89.667,72.354 89.662,72.939C89.662,73.004 89.655,73.092 89.643,73.187L89.671,73.264C89.742,73.472 89.78,73.692 89.781,73.921C89.862,74.231 89.917,74.545 89.968,74.859C90.02,75.187 90.046,75.518 90.195,75.816C90.564,76.554 90.403,77.162 89.903,77.671C89.74,77.838 89.408,78.101 88.877,78.159C88.845,78.163 88.808,78.165 88.769,78.166L88.793,78.206C89.118,78.752 89.499,79.279 89.746,79.772C89.865,80.01 90.148,80.775 90.191,81.333C90.246,82.051 89.975,82.605 89.656,82.925C88.993,83.589 87.581,85.199 86.665,85.991C87.253,86.506 87.803,87.285 88.103,88.114C88.415,88.975 88.45,89.861 88.215,90.542C87.925,91.385 87.127,92.244 86.056,92.907C84.806,93.681 83.211,94.234 82.299,94.406C82.037,94.455 81.705,94.478 81.388,94.54L81.303,94.558C81.147,94.749 81.059,94.976 80.985,95.205C80.858,95.6 80.776,96.009 80.651,96.375C80.606,96.506 80.557,96.635 80.505,96.759C80.836,96.95 81.154,97.158 81.454,97.347C83.148,98.414 84.235,99.806 84.562,101.351C84.795,102.451 84.665,103.652 84.023,104.925C83.85,105.268 83.398,105.801 82.495,105.887C82.124,105.922 81.218,105.883 80.782,105.86C80.729,106.015 80.67,106.186 80.622,106.314C80.369,106.993 79.944,107.515 79.425,107.78C79.219,107.885 78.956,107.962 78.653,107.993C79.132,108.694 79.546,109.437 79.808,110.196C79.969,110.663 80.015,111.159 80.017,111.667C80.018,111.965 79.951,112.275 80.065,112.562C80.222,112.958 80.717,113.355 81.079,113.757C81.616,114.353 81.999,114.96 82.119,115.439C82.464,116.819 82.044,118.026 81.288,119.143C80.811,119.846 80.173,120.502 79.768,121.197C79.621,121.449 79.438,121.772 79.221,122.075C80.016,122.702 80.714,123.428 80.931,123.86C81.058,124.114 81.116,124.368 81.112,124.621C81.662,124.175 82.19,123.682 82.744,123.282C84.044,122.344 85.085,121.362 86.225,120.223C86.711,119.737 87.322,119.562 87.996,119.642C88.019,119.593 88.038,119.544 88.055,119.497C88.365,118.596 88.174,115.895 87.892,114.985C87.789,114.654 87.59,114.3 87.451,113.936C87.278,113.484 87.171,113.022 87.171,112.569C87.171,112.137 87.142,110.736 87.286,110.037C87.405,109.461 87.671,109.079 87.883,108.879C88.028,108.741 88.192,108.616 88.365,108.499C88.599,107.967 89.113,107.586 89.72,107.545C90.109,107.349 90.561,107.322 90.967,107.463C91.279,107.408 91.575,107.311 91.85,107.135C91.899,107.048 91.948,106.959 92,106.874C92.252,106.459 92.58,106.124 92.995,105.916C93.291,105.768 93.501,105.516 93.597,105.196C93.592,105.168 93.586,105.126 93.581,105.098C93.54,104.874 93.469,104.633 93.405,104.387C93.174,103.503 93.06,102.578 93.324,101.791C93.584,101.014 94.166,100.576 94.958,100.409C95.042,100.391 95.159,100.372 95.272,100.356C95.56,100.032 95.841,99.643 96.049,99.289C96.376,98.731 96.887,98.083 96.976,97.425C97.002,97.234 96.946,96.607 97,96.281C97.08,95.791 97.3,95.456 97.486,95.263C97.822,94.911 98.328,94.612 99.089,94.833C99.154,94.852 99.513,94.927 99.872,95.344C99.961,95.446 100.323,95.918 100.479,96.116L100.625,96.223C100.684,95.807 100.701,95.39 100.701,95.049C100.701,94.735 100.612,94.096 100.65,93.637C100.7,93.018 100.943,92.543 101.213,92.259C101.478,91.978 102,91.686 102.44,91.463C102.581,91.24 102.773,90.937 102.826,90.863C103.071,90.519 103.356,90.349 103.598,90.262C103.723,90.184 103.86,90.124 104.005,90.083C104.163,89.859 104.32,89.629 104.5,89.44C104.533,89.405 104.568,89.371 104.605,89.338C104.547,89.201 104.496,89.068 104.457,88.944C104.214,88.171 104.346,87.524 104.637,87.071C104.239,86.554 103.809,86.344 103.426,86.039C102.75,85.5 102.108,84.837 101.613,83.363C101.038,81.654 101.47,80.712 102.063,79.905C102.232,79.676 102.428,79.462 102.614,79.233C102.737,79.083 102.842,78.911 102.837,78.634C102.745,78.522 102.626,78.381 102.518,78.27C101.872,77.601 101.022,76.77 100.568,76.027C100.053,75.186 99.954,74.358 100.179,73.685C100.398,73.028 100.947,72.301 102.32,71.957C102.398,71.938 102.474,71.916 102.549,71.892C102.394,71.76 102.229,71.583 102.077,71.349C101.771,70.88 101.192,69.718 101.003,69.53C100.526,69.052 99.602,68.819 98.934,68.652C98.629,68.576 98.304,68.589 97.981,68.587C97.4,68.583 96.821,68.564 96.279,68.428C95.828,68.315 95.451,68.071 95.138,67.734C95.003,67.588 94.9,67.399 94.774,67.272C94.691,67.19 94.559,67.033 94.455,66.902C94.078,66.568 93.702,66.105 93.323,65.662C93.223,65.546 93.126,65.429 93.026,65.324C92.98,65.276 92.94,65.225 92.893,65.19ZM78.795,88.585C78.422,88.222 77.45,87.281 77.195,87.089C75.526,85.837 73.527,84.49 71.422,85.722C69.565,86.809 67.61,87.736 65.736,88.833C64.358,89.639 62.912,90.008 61.661,91.059C60.709,91.859 60.188,92.889 59.767,93.971C59.245,95.315 58.876,96.743 58.314,98.08C57.972,98.895 57.401,99.527 56.793,100.119C56.467,100.438 56.11,100.725 55.909,101.126C55.777,101.391 55.581,101.603 55.349,101.753C55.324,101.785 55.297,101.817 55.269,101.849C54.961,102.196 54.193,102.573 53.84,102.682C53.769,102.704 53.724,102.755 53.674,102.801C53.576,102.89 53.481,102.986 53.375,103.08C52.929,103.471 52.396,103.873 51.517,104.142C51.45,104.588 51.23,105.222 50.846,105.907C50.256,106.959 49.306,108.256 48.656,109.036C48.832,109.028 48.972,109.017 49.052,109.007C52.279,108.604 54.812,109.652 57.395,111.589C57.744,111.851 58.862,112.683 59.505,113.349C59.758,113.612 59.949,113.878 60.083,114.123C60.285,114.318 60.468,114.541 60.637,114.778C60.83,115.05 60.985,115.362 61.207,115.583C61.658,116.034 62.451,116.88 63.224,117.548C63.562,117.84 63.863,118.122 64.116,118.201C64.731,118.392 65.067,118.208 65.425,118.018C66.014,117.706 66.632,117.376 67.479,117.216C68.426,117.037 69.253,117.137 70.041,117.301C70.526,117.403 70.984,117.55 71.469,117.55L71.491,117.55C72.348,117.555 73.193,117.873 73.989,118.375C74.746,118.852 75.456,119.517 76.102,119.966C76.156,119.963 76.219,119.96 76.261,119.96C76.435,119.962 76.608,119.971 76.777,119.991C76.863,119.846 76.936,119.701 77.003,119.586C77.442,118.832 78.121,118.112 78.637,117.349C78.86,117.019 79.092,116.692 79.03,116.294L78.965,116.209C78.823,116.027 78.644,115.835 78.461,115.638C77.888,115.018 77.326,114.34 77.089,113.742C76.856,113.153 76.814,112.534 76.816,111.917C76.817,111.684 76.855,111.451 76.782,111.238C76.45,110.276 75.742,109.375 75.075,108.581C74.426,107.809 73.724,107.046 73.117,106.25C72.937,106.093 72.499,105.702 72.341,105.505C71.998,105.078 71.917,104.647 71.917,104.363C71.917,103.67 72.249,103.32 72.487,103.117C72.839,102.816 73.279,102.656 73.828,102.757C74.012,102.791 74.271,102.871 74.54,103.075C74.597,103.118 74.724,103.239 74.81,103.324C74.982,103.438 75.154,103.548 75.323,103.67C75.719,103.954 75.973,104.223 76.46,104.296C76.745,104.338 77.27,104.524 77.795,104.674C77.963,104.204 78.183,103.807 78.419,103.572C78.72,103.271 79.282,103.042 79.65,102.858C79.86,102.753 80.283,102.634 80.829,102.642C81.007,102.645 81.217,102.659 81.428,102.673C81.568,101.612 80.835,100.74 79.748,100.055C79.433,99.856 79.099,99.613 78.744,99.423C78.595,99.342 78.448,99.252 78.284,99.252C78.247,99.252 78.177,99.248 78.098,99.243C77.93,99.303 77.749,99.336 77.56,99.336C77.017,99.336 76.537,99.065 76.248,98.651C75.828,98.363 75.553,97.88 75.553,97.333C75.553,96.449 76.271,95.732 77.154,95.732C77.29,95.732 77.395,95.758 77.461,95.703C77.544,95.634 77.569,95.527 77.605,95.42C77.66,95.257 77.704,95.081 77.755,94.905C78.028,93.954 78.361,92.965 79.118,92.207C79.475,91.851 79.951,91.603 80.49,91.463C80.899,91.357 81.357,91.327 81.705,91.261C82.353,91.138 83.483,90.736 84.371,90.186C84.598,90.045 84.812,89.902 84.984,89.747C85.067,89.672 85.144,89.604 85.18,89.52C85.177,89.492 85.164,89.403 85.149,89.35C85.114,89.232 85.062,89.112 85.005,88.995C84.888,88.752 84.762,88.493 84.585,88.405C84.549,88.387 84.513,88.366 84.476,88.344C84.277,88.7 83.977,89.006 83.533,89.237C83.381,89.317 83.027,89.446 82.523,89.455C82.105,89.463 81.384,89.409 80.87,89.374C80.677,89.456 80.465,89.502 80.242,89.502C79.603,89.502 79.051,89.127 78.795,88.585ZM54.358,64.808C54.223,64.864 54.1,64.951 53.989,65.027C53.723,65.207 53.384,65.341 53.018,65.432C52.959,65.696 52.868,65.918 52.774,66.078C52.524,66.505 52.329,67.119 52.082,67.663L52.017,67.802L52.095,67.836C53.055,68.077 54.723,68.563 56.014,69.312C57.206,70.004 58.067,70.951 58.329,72C58.632,73.214 58.237,74.12 57.5,74.846C56.937,75.401 56.033,75.784 55.477,76.201C55.205,76.405 54.935,76.837 54.662,77.308C54.168,78.157 53.731,79.164 53.63,79.769C53.475,80.695 53.755,81.614 53.97,82.533C54.292,83.911 54.531,85.284 54.191,86.642C54.118,86.936 54.182,87.323 54.144,87.668C54.072,88.325 53.835,88.902 53.396,89.341C52.745,89.992 52.033,90.2 51.251,90.259C50.955,90.281 50.638,90.241 50.316,90.34C49.014,90.745 47.591,90.908 46.18,90.964C46.307,91.15 46.422,91.343 46.522,91.544C46.837,92.174 46.895,92.931 46.797,93.73C46.756,94.07 46.687,94.42 46.652,94.757C46.639,94.872 46.609,94.983 46.639,95.08C46.714,95.319 46.905,95.431 47.095,95.537C47.403,95.71 47.744,95.84 48.075,95.98C49.018,96.38 49.869,96.879 50.401,97.691C51.018,98.631 51.142,99.705 51.11,100.804C51.239,100.707 51.342,100.604 51.444,100.512C51.87,100.128 52.29,99.816 52.87,99.632L52.926,99.608C53.024,99.495 53.137,99.396 53.262,99.315C53.612,98.765 54.08,98.295 54.559,97.828C54.863,97.531 55.192,97.249 55.363,96.841C55.914,95.53 56.272,94.129 56.784,92.812C57.397,91.235 58.216,89.774 59.602,88.609C60.998,87.436 62.582,86.97 64.119,86.071C65.993,84.974 67.948,84.047 69.805,82.96C73.155,80.999 76.459,82.536 79.116,84.529C79.427,84.763 80.348,85.536 80.953,86.164C81.191,86.175 81.474,86.189 81.739,86.203C81.867,85.685 82.128,85.263 82.541,84.953C83.178,84.476 83.826,84.076 84.498,83.636C85.068,83.262 86.132,82.029 86.877,81.209L86.867,81.172C86.592,80.636 86.144,80.062 85.828,79.461C85.484,78.807 85.268,78.124 85.268,77.44C85.268,76.297 85.669,75.22 86.239,74.246C86.285,74.168 86.347,74.076 86.414,73.976C86.397,73.898 86.384,73.817 86.376,73.731C86.254,73.517 86.115,73.31 85.972,73.12C85.875,72.99 85.722,72.978 85.567,72.972C85.344,72.965 85.105,73 84.865,73.041C83.864,73.217 82.835,73.637 82.136,73.812C81.869,73.879 81.62,74.044 81.355,74.152C80.682,74.427 79.978,74.544 79.195,74.301C78.712,74.151 78.254,73.806 77.895,73.314C77.669,73.006 77.487,72.618 77.328,72.375C76.777,71.533 76.387,70.371 75.712,69.684C75.69,69.678 75.631,69.663 75.596,69.658C75.323,69.619 75.023,69.646 74.717,69.672C73.55,69.768 72.354,69.822 71.461,69.376C71.123,69.207 70.793,68.933 70.51,68.615L70.454,68.551C70.343,68.511 70.234,68.458 70.131,68.391L70.113,68.453C69.87,69.24 69.397,69.73 69.004,69.932C68.759,70.057 68.414,70.154 68.032,70.19C67.836,70.208 67.617,70.201 67.472,70.223C67.107,70.277 66.493,70.308 66.113,70.213C65.061,69.95 64.178,69.211 63.186,68.818C61.42,68.118 59.84,67.171 58.284,66.151C57.166,65.418 55.668,65.132 54.358,64.808ZM16.776,50.382C16.725,50.396 16.675,50.406 16.627,50.415C16.068,50.51 15.565,50.367 15.141,49.92C14.856,49.62 14.645,49.201 14.565,48.69C14.496,48.254 14.559,47.682 14.559,47.321C14.559,46.756 14.597,46.171 14.521,45.645C14.482,45.374 14.389,45.128 14.039,45.04C13.938,45.015 13.84,45.076 13.738,45.11C13.399,45.222 13.074,45.393 12.788,45.523C11.142,46.274 9.459,46.299 7.68,46.299C7.371,46.299 6.961,46.254 6.564,46.258C6.518,46.47 6.479,46.705 6.437,46.944C6.258,47.972 5.98,49.027 5.576,49.564C5.345,49.873 5.056,50.124 4.733,50.338C4.516,50.482 4.271,50.594 4.071,50.752C3.132,51.496 2.139,52.12 1.838,53.324C1.804,53.458 1.894,53.576 1.96,53.694C2.145,54.026 2.421,54.314 2.654,54.54C2.833,54.713 3.094,55.063 3.179,55.612C3.24,56.008 3.203,56.814 3.203,56.988C3.203,58.177 3.413,59.867 3.122,61.032C3.028,61.407 2.808,61.779 2.446,62.094C2.337,62.189 2.139,62.334 2.001,62.432C1.622,63.049 1.374,63.707 1.374,64.447C1.374,64.634 1.342,64.813 1.283,64.98C1.369,65.503 1.581,66.056 1.723,66.569C1.941,67.358 2.033,68.095 1.922,68.68C1.74,69.644 1.09,70.395 0.31,71.005C0.208,71.085 0.103,71.16 0,71.233C0.248,71.186 0.498,71.153 0.742,71.138C0.934,71.07 1.141,71.019 1.239,71.016C1.924,70.994 2.507,71.239 2.823,72.076C2.967,72.457 3.053,72.867 3.155,73.272C3.199,73.444 3.233,73.62 3.332,73.771C3.441,73.938 3.674,74.031 3.905,74.142C4.549,74.453 5.318,74.646 5.821,74.741C6.797,74.925 7.977,74.922 8.968,74.922C9.156,74.922 9.51,74.974 9.89,75.123C10.291,75.28 10.735,75.546 10.97,75.764C11.224,75.999 11.375,76.255 11.462,76.496C11.605,76.727 11.691,76.996 11.7,77.285C11.714,77.32 11.76,77.424 11.79,77.485C11.989,77.884 12.278,78.282 12.458,78.564C12.629,78.833 13.455,80.277 14.119,81.164C14.169,81.23 14.227,81.301 14.283,81.364C15.64,81.603 17.164,81.347 18.52,81.573C18.874,81.632 19.273,81.608 19.619,81.695C20.2,81.84 20.708,82.141 21.092,82.727C21.358,83.134 21.54,83.675 21.624,84.271C21.685,84.709 21.697,85.183 21.698,85.6C21.779,85.79 21.823,86 21.823,86.22C21.823,86.499 21.739,86.91 21.586,87.353C22.123,87.525 22.688,87.71 22.877,87.785C23.139,87.889 23.652,88.247 24.188,88.812C24.562,89.206 24.994,89.711 25.376,90.175C25.483,89.939 25.596,89.706 25.726,89.49C26.233,88.645 26.936,88.007 28.005,87.785C28.155,87.754 28.697,87.745 29.273,87.748C29.271,87.6 29.274,87.467 29.284,87.363C29.339,86.775 29.583,86.37 29.802,86.139C30.087,85.84 30.502,85.588 30.985,85.402C31.261,85.296 31.583,85.234 31.8,85.107C32.609,84.634 33.542,84.428 34.376,84.011C34.431,83.984 34.75,83.883 35.028,83.8C35.349,83.488 35.758,83.215 36.113,83.127C36.648,82.993 37.248,83.084 37.787,82.973C38.064,82.496 38.581,82.175 39.172,82.175C39.402,82.175 41.162,81.866 41.559,81.83C42.101,81.782 42.422,81.952 42.5,81.991C43.43,82.456 43.975,83.382 44.13,84.562C44.258,85.531 44.091,86.713 44.091,87.42L44.09,87.882C44.362,87.828 44.606,87.79 44.781,87.79C46.313,87.79 47.931,87.729 49.368,87.283C49.861,87.13 50.344,87.1 50.809,87.079L50.976,87.073L50.977,87.034C50.984,86.619 51.001,86.208 51.086,85.866C51.302,85.004 51.058,84.138 50.853,83.263C50.541,81.93 50.249,80.585 50.473,79.243C50.617,78.377 51.189,76.914 51.894,75.7C52.42,74.795 53.033,74.033 53.557,73.64C53.979,73.323 54.632,73.043 55.135,72.665L55.158,72.647C55.123,72.601 55.078,72.558 55.031,72.515C54.859,72.355 54.639,72.215 54.407,72.081C53.383,71.486 52.049,71.124 51.297,70.935C51.111,70.889 50.412,70.57 49.74,70.319C49.692,70.301 49.638,70.283 49.582,70.267C49.41,70.331 49.223,70.366 49.028,70.366C48.144,70.366 47.427,69.649 47.427,68.766L47.428,68.745L47.341,68.706L47.169,68.667L47.156,68.667C45.436,68.667 42.836,67.444 41.049,67.059C40.792,67.004 40.515,66.893 40.231,66.76C40.122,66.996 39.98,67.183 39.829,67.326C39.658,67.488 39.468,67.612 39.259,67.692C39.211,67.815 39.153,67.926 39.089,68.022C38.55,68.845 38.131,69.272 37.723,69.554C37.163,69.94 36.585,70.042 35.419,70.334C35.112,70.41 34.673,70.556 34.301,70.581C33.874,70.609 33.484,70.529 33.157,70.366C32.63,70.102 32.133,69.593 31.729,68.94C31.403,68.414 31.138,67.77 30.854,67.373C30.808,67.309 30.729,67.284 30.659,67.246C30.394,67.102 30.106,66.989 29.841,66.861C29.127,66.514 28.552,66.055 28.222,65.408C28.107,65.183 27.954,64.478 27.95,63.771L27.95,63.679C27.547,63.673 27.195,63.662 27.006,63.63C26.485,63.542 26.18,63.299 26.026,63.145C25.722,62.841 25.368,62.299 25.635,61.483C25.674,61.362 25.759,61.166 25.909,60.949C26.074,60.712 26.417,60.322 26.47,60.258C26.908,59.737 27.324,59.224 27.762,58.733L27.705,58.684C27.412,58.419 27.147,58.118 26.95,57.723C26.613,57.049 26.585,56.416 26.685,55.8C26.719,55.589 26.771,55.381 26.816,55.175L26.84,55.057C26.798,54.947 26.707,54.813 26.634,54.741C26.538,54.644 26.246,54.322 26.114,54.124C25.951,53.878 25.878,53.652 25.846,53.506L25.839,53.469L25.811,53.434C25.586,53.166 25.381,52.895 25.265,52.662C24.869,51.872 24.064,51.621 23.233,51.422C21.897,51.102 20.429,51.001 19.258,50.636C18.965,50.545 17.653,50.532 17.067,50.443C16.963,50.427 16.865,50.406 16.776,50.382ZM130.417,41.49C130.392,41.669 130.372,41.83 130.353,41.96C130.268,42.537 130.195,43.089 130.193,43.681L130.181,43.896L130.121,44.18L130.015,44.44L129.851,44.696L129.687,44.875L129.461,45.052L129.337,45.125L129.114,45.22C129.072,45.292 129.033,45.367 128.994,45.439C128.64,46.088 128.194,46.587 127.806,46.781C127.303,47.033 126.7,47.141 126.121,47.2L125.764,47.236C125.743,47.289 125.72,47.343 125.694,47.396C125.586,47.621 125.435,47.854 125.183,48.092C124.873,48.386 124.421,48.691 124.129,48.967C123.914,49.17 123.354,49.547 122.501,49.373C122.079,49.287 121.177,48.907 120.998,48.87C119.193,48.495 117.384,47.975 115.554,47.517C115.407,47.48 115.253,47.437 115.097,47.387C115.07,47.488 115.042,47.59 115.013,47.693C114.653,48.961 114.036,50.201 113.166,50.772C111.683,51.744 109.703,52.068 107.99,52.354C107.68,52.405 107.392,52.417 107.118,52.416C107.324,52.863 107.636,53.337 107.822,53.794C108.202,54.725 108.235,55.618 107.858,56.372C107.343,57.402 106.386,58.028 105.341,58.545C104.877,58.775 104.353,58.915 104.087,59.32C103.959,59.516 103.92,59.765 103.895,60.034C103.859,60.427 103.871,60.856 103.872,61.291C103.875,62.63 103.825,64.002 103.315,65.049C103.194,65.296 102.742,65.98 102.341,66.569C102.694,66.778 103.011,67.011 103.267,67.267C103.405,67.405 103.815,68.039 104.184,68.634L104.192,68.629C104.279,68.562 104.409,68.467 104.531,68.392C104.703,68.288 104.876,68.222 104.995,68.198C105.558,68.088 106.061,68.23 106.481,68.661C106.664,68.849 106.904,69.195 106.962,69.718C106.993,69.994 106.935,70.54 106.935,70.673C106.935,71.054 106.963,71.738 106.882,72.351C106.929,72.502 106.954,72.662 106.954,72.828C106.954,73.674 106.297,74.367 105.466,74.424C105.229,74.519 104.963,74.575 104.666,74.579C104.504,74.629 104.342,74.681 104.175,74.723C104.012,74.763 103.853,74.817 103.694,74.872C104.218,75.477 104.878,76.077 105.269,76.535C105.689,77.028 105.897,77.494 105.957,77.812C105.991,77.992 106.015,78.163 106.03,78.326L106.131,78.32C106.507,78.296 106.955,78.201 107.393,78.085C108.061,77.91 108.733,77.709 108.997,77.445C109.592,76.851 110.21,76.116 110.641,75.38C110.835,75.048 110.936,74.632 111.112,74.267C111.353,73.765 111.675,73.322 112.126,72.984C112.692,72.56 113.355,72.314 114.026,72.097C114.336,71.996 114.655,71.921 114.92,71.744C114.947,71.695 115,71.597 115.035,71.532C115.189,71.238 115.336,70.9 115.483,70.596C115.884,69.768 116.425,69.17 116.854,68.961C117.519,68.638 118.455,68.507 119.473,68.517C120.504,68.526 121.645,68.682 122.424,68.585C122.478,68.578 122.579,68.572 122.705,68.566C122.717,68.121 122.728,67.687 122.728,67.557C122.728,67.426 122.744,67.298 122.774,67.176C122.698,66.565 122.954,66.176 123.113,65.97C123.42,65.575 123.919,65.228 124.707,65.357C124.875,65.384 125.135,65.463 125.427,65.614C125.568,65.686 125.746,65.827 125.894,65.864C126.164,65.932 126.456,65.884 126.746,65.869C127.392,65.833 128.033,65.839 128.625,66.023C129.198,66.201 129.964,66.74 130.716,67.457C131.393,68.103 132.096,68.902 132.635,69.362C132.92,69.334 133.241,69.247 133.562,69.162C134.144,69.008 134.727,68.85 135.208,68.797C135.845,68.725 136.386,68.823 136.788,69.024C137.247,69.253 137.671,69.608 138.066,70.024C138.404,70.38 138.71,70.803 139.068,71.087C140.163,71.955 141.643,72.548 142.672,73.462C142.743,73.477 142.798,73.489 142.818,73.494C143.117,73.569 143.446,73.532 143.775,73.501C144.342,73.446 144.91,73.365 145.428,73.365C145.759,73.365 146.916,73.222 147.722,73.036C147.805,72.676 147.905,72.221 147.952,71.945C147.961,71.894 147.97,71.844 147.979,71.796C147.881,71.589 147.827,71.358 147.827,71.114C147.827,70.925 147.859,70.744 147.92,70.575L147.845,70.375C147.379,69.148 147.172,67.646 148.007,66.532C148.289,66.156 148.615,65.852 148.953,65.561C149.2,65.348 149.475,65.164 149.659,64.85C150.203,63.921 150.08,62.778 149.406,62.042C149.362,62.03 149.318,62.019 149.281,62.011C148.84,61.919 148.388,61.808 148.1,61.664C146.814,61.022 145.353,59.924 144.602,58.681C143.96,57.617 143.846,56.405 143.74,55.223C143.691,54.685 143.691,54.146 143.361,53.722C143.171,53.478 142.86,53.303 142.41,53.152C142.03,53.024 141.682,53.06 141.299,53.061C141.217,53.062 141.135,53.058 141.057,53.047C140.79,53.012 140.544,52.912 140.335,52.763L140.324,52.755C140.117,52.604 139.944,52.402 139.827,52.162L139.824,52.156C139.5,51.943 139.105,51.733 139.002,51.673C137.536,50.815 136.359,49.946 135.681,48.331C135.351,47.545 135.08,46.658 134.65,45.922C134.12,45.017 133.377,44.232 132.853,43.309C132.701,43.042 132.541,42.622 132.361,42.224C132.336,42.167 132.298,42.081 132.271,42.02C131.995,41.887 131.645,41.871 131.33,41.794C131.008,41.715 130.7,41.617 130.417,41.49ZM66.926,26.998C67.047,27.431 67.113,28.003 67.09,28.646C67.037,30.11 66.597,32.032 66.251,32.838C66.264,32.879 66.28,32.93 66.292,32.963C66.421,33.323 66.63,33.663 66.76,33.924C66.962,34.326 66.984,34.731 66.852,35.138C66.787,35.339 66.676,35.556 66.481,35.76C66.432,35.811 66.261,35.932 66.095,36.03C65.825,36.276 65.506,36.511 65.16,36.704C65.134,36.883 65.09,37.067 65.03,37.255C64.997,37.358 64.959,37.464 64.92,37.57C65.246,37.753 65.556,37.958 65.815,38.217C66.313,38.715 66.942,39.601 67.312,40.492C67.635,41.271 67.749,42.061 67.63,42.689C67.53,43.218 67.323,43.55 67.323,44.115C67.323,44.364 67.403,45.942 67.368,46.307C67.308,46.936 66.993,47.255 66.88,47.366C66.417,47.82 65.918,48.079 65.468,48.329L65.388,48.374L65.388,48.38C65.388,48.38 65.388,48.398 65.388,48.395C65.388,49.149 65.29,50.622 65.361,51.903C65.379,52.228 65.4,52.54 65.445,52.809C65.471,52.968 65.49,53.108 65.551,53.201C65.685,53.406 65.921,53.673 66.179,53.872C66.231,53.912 66.325,53.973 66.353,53.992C66.602,54.036 67.233,54.121 67.572,54.234C67.942,54.358 68.199,54.546 68.35,54.695C68.522,54.864 68.719,55.139 68.83,55.531C68.903,55.789 68.916,56.27 68.958,56.437C69.131,57.129 69.469,57.695 69.625,58.447C69.733,58.968 69.683,59.435 69.492,59.843C69.781,59.963 70.051,60.101 70.219,60.247C70.392,60.396 70.525,60.558 70.625,60.727C71.664,61.814 71.931,62.928 72.35,64.275C72.405,64.45 72.546,65.344 72.495,65.8C72.488,65.856 72.48,65.909 72.47,65.961L72.933,66.53C73.095,66.593 73.291,66.565 73.492,66.557C74,66.537 74.535,66.463 75.041,66.445C76.188,66.405 77.211,66.657 77.959,67.404C78.784,68.229 79.335,69.597 80.005,70.62C80.093,70.755 80.188,70.937 80.294,71.124C80.647,70.962 80.999,70.797 81.359,70.707C82.012,70.544 82.923,70.209 83.858,69.99C83.788,69.951 83.723,69.909 83.663,69.865C83.184,69.514 82.722,68.801 82.722,67.47C82.722,67.058 82.818,66.652 82.893,66.253C82.999,65.694 83.198,65.064 83.448,64.565C83.807,63.846 84.693,62.53 85.632,61.931C86.368,61.461 87.15,61.334 87.888,61.563C88.041,61.611 88.195,61.674 88.348,61.749L88.323,61.66C88.29,61.544 88.236,61.404 88.198,61.312C88.12,61.206 88.033,61.064 87.959,60.883C87.911,60.766 87.826,60.517 87.76,60.317C87.565,60.019 87.514,59.712 87.5,59.612C87.468,59.364 87.452,58.956 87.699,58.563C87.563,58.457 87.437,58.345 87.326,58.225C87.127,58.011 86.958,57.726 86.88,57.35C86.827,57.095 86.819,56.721 86.897,56.285C86.965,55.905 87.11,55.414 87.189,54.995L87.199,54.93C86.99,54.448 86.455,53.632 85.941,52.955C85.687,52.62 85.293,52.189 85.245,52.136L85.073,52.071C84.696,52.435 84.221,52.85 83.744,53.093C82.7,53.625 81.634,53.609 80.711,52.676C80.518,52.48 80.299,52.154 80.217,51.682C80.16,51.347 80.207,50.71 80.207,50.511C80.207,49.726 80.258,48.769 80.546,47.991C80.839,47.198 81.347,46.557 82.115,46.173C82.49,45.985 82.954,45.913 83.477,46.103C83.627,46.158 83.939,46.357 84.118,46.477C84.394,46.583 84.711,46.735 85.035,46.851L85.049,46.856C85.546,46.445 86.353,45.774 86.878,45.33L86.855,44.872C86.744,44.827 86.626,44.787 86.502,44.742C86.026,44.569 85.509,44.352 84.986,43.959C84.945,43.928 84.905,43.896 84.865,43.864C84.275,43.858 83.715,43.523 83.444,42.967L83.223,42.553C82.914,42.261 82.721,41.847 82.721,41.389C82.721,41.12 82.742,40.818 82.737,40.52C82.187,40.343 81.609,40.168 81.294,39.978C79.766,39.055 78.793,37.431 78.628,35.619C78.386,32.963 78.62,30.179 78.183,27.558C78.18,27.539 78.177,27.517 78.174,27.494C76.91,28.274 75.466,29.212 74.077,29.401C73.43,29.489 72.373,29.502 71.466,29.332C70.858,29.218 70.313,29.011 69.899,28.745L69.878,28.741C69.851,28.753 69.824,28.764 69.797,28.775C69.112,29.031 68.362,28.787 67.948,28.227C67.515,27.897 67.19,27.465 66.926,26.998ZM31.126,58.767L31.126,58.762C31.119,57.682 30.699,57.097 30.185,56.608C30.112,56.539 30.034,56.475 29.954,56.411C29.916,56.381 29.866,56.36 29.833,56.321C29.849,56.253 29.896,56.063 29.92,55.96C30.044,55.414 30.098,54.875 29.963,54.334C29.824,53.779 29.364,52.977 28.957,52.539C28.895,52.336 28.802,52.13 28.676,51.928C28.522,51.68 28.233,51.441 28.127,51.231C27.284,49.545 25.75,48.733 23.978,48.309C22.713,48.007 21.32,47.926 20.211,47.581C20.104,47.547 19.851,47.507 19.535,47.466C19.905,47.009 20.286,46.482 20.702,45.995C21.039,45.602 21.385,45.216 21.825,45.042C21.909,45.008 22.04,44.938 22.195,44.848C22.342,45.217 22.482,45.585 22.655,45.897C23.226,46.925 23.974,47.446 25.007,47.962C25.269,48.093 25.568,48.287 25.875,48.397C26.362,48.571 26.867,48.607 27.374,48.457C28.142,48.229 28.927,47.552 29.597,47.136C31.545,45.923 33.361,44.859 35.102,43.347C36.087,42.493 36.982,41.481 37.834,40.508C37.932,40.396 38.153,40.232 38.35,40.064C38.718,39.957 39.069,39.781 39.409,39.569C39.528,39.495 39.645,39.416 39.766,39.346C40.06,39.621 40.352,39.907 40.617,40.079C41.242,40.483 42.495,41.155 43.557,41.47C44.208,41.663 44.815,41.721 45.275,41.652C45.603,41.604 45.92,41.483 46.224,41.32C46.299,41.281 46.432,41.201 46.473,41.176L46.945,41.077L46.976,41.094C48.024,41.618 48.736,41.408 49.678,40.702C51.233,39.536 51.609,37.643 51.874,35.748C51.916,35.451 51.952,35.153 52.004,34.867C52.17,35.233 52.314,35.61 52.434,35.954C52.431,36.014 52.427,36.12 52.43,36.182C52.443,36.557 52.519,36.913 52.677,37.228C52.926,37.726 53.358,38.089 53.953,38.264C54.343,38.379 54.902,38.345 55.195,38.381C56.433,38.536 57.644,38.873 58.887,38.873C59.104,38.873 59.311,38.83 59.5,38.751C59.688,38.674 59.865,38.558 60.019,38.405C60.271,38.153 60.462,37.882 60.63,37.605C60.68,37.523 60.721,37.437 60.768,37.355C61.008,37.301 61.356,37.231 61.681,37.195C61.501,37.947 61.575,38.648 61.917,39.169C62.181,39.573 62.538,39.878 62.946,40.127C63.146,40.249 63.388,40.316 63.552,40.48C63.822,40.75 64.155,41.236 64.356,41.719C64.41,41.85 64.472,42.081 64.481,42.114C64.34,42.847 64.122,43.326 64.122,44.115C64.122,44.246 64.141,44.894 64.157,45.417C63.949,45.531 63.746,45.622 63.571,45.736C62.79,46.248 62.187,46.897 62.187,48.395C62.187,49.334 62.058,51.319 62.224,52.805C62.326,53.717 62.563,54.481 62.875,54.956C63.414,55.779 64.702,56.937 65.724,57.131L65.84,57.152C65.844,57.176 65.849,57.197 65.853,57.213C65.953,57.614 66.116,57.969 66.26,58.347C65.684,58.481 65.086,58.536 64.833,58.599C64.693,58.634 64.364,58.733 64.081,58.819C63.85,58.869 63.629,58.941 63.419,59.036C63.326,59.078 63.136,59.173 63.003,59.438C62.959,59.524 62.835,59.915 62.811,60.353C62.794,60.666 62.829,60.998 62.927,61.258C63.045,61.569 63.247,61.805 63.515,61.948C63.772,62.084 64.114,62.159 64.573,62.017L64.886,61.92C65.135,61.894 65.412,61.962 65.687,62.026C66.376,62.185 67.054,62.44 67.571,62.569C67.676,62.595 67.875,62.637 68.073,62.698C68.109,62.74 68.147,62.78 68.189,62.818C68.669,63.265 68.871,63.737 69.022,64.245C68.565,64.347 68.186,64.557 67.908,64.836C67.768,64.975 67.591,65.204 67.467,65.555C67.373,65.825 67.281,66.382 67.18,66.944C67.174,66.974 67.168,67.006 67.16,67.039L66.812,67.087C65.931,66.839 65.205,66.175 64.365,65.842C62.804,65.223 61.414,64.375 60.039,63.474C58.601,62.532 56.69,62.095 55.022,61.675C54.036,61.426 53.012,61.834 52.246,62.342C52.173,62.352 51.95,62.384 51.833,62.408C51.285,62.522 50.83,62.745 50.539,63.022C50.331,63.219 50.07,63.604 49.973,64.156C49.95,64.284 49.919,64.512 49.898,64.669C49.688,65.074 49.495,65.571 49.291,66.056C49.057,65.965 48.83,65.873 48.624,65.773C48.434,65.68 47.737,65.491 47.41,65.457C47.251,65.44 47.109,65.445 46.984,65.46C46.344,65.416 45.581,65.163 44.807,64.901C43.718,64.533 42.619,64.123 41.723,63.93C41.456,63.873 41.171,63.642 40.869,63.517C40.273,63.27 39.665,63.189 39.088,63.333C38.376,63.511 37.944,63.884 37.671,64.337C37.336,64.387 37.041,64.531 36.786,64.761C36.499,65.02 36.191,65.517 36.191,66.227C36.192,66.316 36.196,66.455 36.201,66.584C36.096,66.738 36.009,66.848 35.906,66.918C35.778,67.007 35.635,67.02 35.451,67.057C35.228,67.101 34.966,67.148 34.643,67.229L34.456,67.276C34.41,67.196 34.365,67.113 34.318,67.03C34.015,66.486 33.737,65.902 33.459,65.513C32.983,64.847 32.243,64.438 31.492,64.099L31.191,63.963L31.187,63.521C31.242,63.454 31.291,63.391 31.32,63.342C31.657,62.791 31.699,62.222 31.399,61.626C31.238,61.305 30.898,60.914 30.297,60.7C30.415,60.572 30.535,60.446 30.658,60.323C30.81,60.171 30.974,59.95 31.07,59.631C31.115,59.48 31.13,58.969 31.126,58.786L30.477,58.786L31.126,58.767ZM122.997,20.59C122.617,20.649 122.203,20.725 121.813,20.853C121.53,20.946 121.241,21.037 121.08,21.263C120.572,21.973 119.946,23.356 119.091,24.205C118.122,25.168 116.937,25.63 115.502,25.136C114.259,24.707 112.867,24.289 111.751,23.558C111.223,23.212 110.747,22.479 110.302,21.649C110.169,21.402 110.033,21.145 109.859,20.93C109.836,20.902 109.815,20.87 109.792,20.842C109.624,21.149 109.434,21.423 109.219,21.638C108.995,21.861 108.673,22.067 108.303,22.223C108.175,22.276 108.037,22.322 107.912,22.367C107.731,22.677 107.577,23.053 107.481,23.244C106.51,25.184 106.421,27.247 105.902,29.321C105.776,29.827 105.974,30.59 106.024,31.278C106.09,32.195 105.99,33.031 105.686,33.607C105.559,33.85 105.257,34.249 104.651,34.454C104.316,34.567 103.578,34.657 103.42,34.687C102.51,34.859 101.571,35.145 100.672,35.4C100.523,35.442 100.354,35.581 100.18,35.666C99.745,35.878 99.304,35.983 98.927,35.97C98.27,35.947 97.683,35.661 97.442,34.804C97.424,34.738 97.266,34.333 97.507,33.751C97.545,33.657 97.776,33.192 97.795,33.16C97.86,33.052 97.922,32.929 97.957,32.808C98.038,32.52 98.298,31.694 98.393,30.982C98.397,30.953 98.4,30.922 98.401,30.89C98.059,30.688 97.61,30.54 97.158,30.375C96.208,30.03 95.22,29.699 94.524,29.292C93.368,28.615 92.775,27.382 92.271,26.087C92.113,25.683 92.002,25.25 91.761,24.928C91.446,25.096 91.134,25.299 91.011,25.36C90.384,25.674 89.9,26.263 89.363,26.714C88.075,27.797 87.094,28.494 86.668,29.604C86.407,30.285 86.388,31.113 86.559,32.27C86.7,33.219 87.859,35.262 88.196,36.449C88.518,37.582 88.442,39.355 87.809,40.592C87.623,40.955 87.396,41.277 87.13,41.548C87.594,41.822 88.053,41.885 88.401,42.06C88.879,42.3 89.293,42.61 89.598,43.107C89.875,43.56 90.071,44.188 90.071,45.135C90.071,45.302 90.133,45.854 90.1,46.133C90.038,46.658 89.795,47.005 89.602,47.198C89.445,47.355 87.683,48.829 86.95,49.437C87.281,49.664 87.689,50.037 88.094,50.522C89.037,51.649 90.087,53.403 90.315,54.134C90.435,54.52 90.431,55.18 90.272,55.885C90.239,56.032 90.202,56.184 90.165,56.332L90.276,56.384C90.837,56.655 91.386,56.942 91.77,57.3C92.058,57.567 92.224,57.895 92.273,58.281C92.308,58.56 92.301,58.988 91.971,59.446C91.882,59.569 91.651,59.813 91.318,60.047C91.273,60.078 91.226,60.11 91.177,60.142C91.258,60.334 91.335,60.549 91.402,60.784C91.524,61.212 91.632,61.723 91.718,62.214C92.446,61.961 93.179,61.891 93.875,62.131C94.445,62.327 94.995,62.744 95.492,63.284C95.862,63.686 96.194,64.184 96.553,64.487C96.615,64.533 96.677,64.585 96.737,64.642C96.829,64.731 96.909,64.829 96.976,64.934C96.998,64.963 97.022,64.995 97.037,65.009C97.142,65.114 97.244,65.238 97.343,65.37C97.558,65.391 97.78,65.385 98.002,65.386C98.402,65.389 98.802,65.399 99.192,65.45C99.605,64.825 100.278,63.975 100.437,63.648C100.842,62.815 100.655,61.657 100.676,60.617C100.699,59.438 100.89,58.36 101.411,57.566C101.977,56.701 102.932,56.166 103.922,55.676C104.133,55.572 104.347,55.472 104.545,55.355C104.673,55.279 104.797,55.199 104.892,55.091C104.854,54.981 104.801,54.868 104.745,54.754C104.414,54.072 104.002,53.36 103.847,52.741C103.81,52.593 103.671,51.749 103.697,51.331C103.733,50.745 103.997,50.364 104.182,50.174C104.906,49.426 105.612,49.238 106.383,49.211C106.708,49.199 107.059,49.264 107.464,49.197C108.761,48.98 110.288,48.831 111.411,48.095C111.537,48.012 111.577,47.831 111.65,47.66C111.828,47.241 111.952,46.764 112.066,46.331C112.214,45.769 112.352,45.263 112.5,44.921C112.645,44.586 112.82,44.335 112.988,44.162C113.301,43.837 113.691,43.668 114.151,43.666C114.266,43.666 114.442,43.694 114.628,43.76C114.757,43.806 114.899,43.871 114.994,43.916L114.999,43.907C115.014,43.914 115.047,43.934 115.08,43.953C115.054,43.937 115.027,43.921 114.999,43.907C115.394,44.104 115.903,44.305 116.33,44.412C118.119,44.859 119.885,45.37 121.648,45.736C121.769,45.761 122.206,45.933 122.618,46.075C122.692,46.018 122.764,45.96 122.832,45.902C122.87,45.784 122.916,45.667 122.976,45.548C123.153,45.195 123.434,44.773 124.231,44.374C124.58,44.2 125.043,44.095 125.558,44.041C125.739,44.021 125.937,44.023 126.122,43.992C126.244,43.78 126.404,43.508 126.526,43.328C126.678,43.1 126.849,42.9 127.036,42.731C127.071,42.318 127.125,41.91 127.187,41.491C127.265,40.965 127.378,40.057 127.64,39.313C127.704,39.13 127.777,38.957 127.86,38.794C127.828,38.669 127.812,38.538 127.812,38.403C127.812,37.619 127.526,36.854 127.212,36.05C126.841,35.099 126.413,34.113 126.108,33.053C126.036,32.989 125.962,32.922 125.91,32.87C125.589,32.553 125.372,32.182 125.281,31.775C125.218,31.491 125.217,31.052 125.362,30.56C125.48,30.159 125.729,29.642 125.803,29.402C125.954,28.917 125.91,26.841 125.774,26.298C125.763,26.255 125.716,26.212 125.667,26.212L125.415,26.191L125.169,26.132L124.912,26.022L124.737,25.914C124.426,25.692 124.199,25.362 124.109,24.979C124.037,24.875 123.941,24.742 123.863,24.645C123.403,24.075 122.977,23.413 122.86,22.711C122.753,22.069 122.82,21.311 122.997,20.59ZM31.126,58.767L31.126,58.786L31.126,58.767L31.126,58.767Z" style="fill:#4c5563;"/>
    <path d="M135.507,71.985C135.436,71.995 135.36,72.01 135.281,72.027C134.828,72.124 134.318,72.282 133.835,72.393C133.269,72.524 132.727,72.593 132.275,72.56C131.729,72.521 131.267,72.347 130.897,72.07C130.269,71.599 129.361,70.587 128.507,69.773C128.186,69.467 127.919,69.156 127.674,69.079C127.438,69.006 127.179,69.05 126.921,69.064C126.586,69.083 126.251,69.095 125.923,69.08C125.915,69.409 125.898,69.724 125.868,69.95C125.784,70.597 125.499,70.996 125.347,71.153C125.158,71.347 124.813,71.591 124.294,71.689C123.881,71.767 123.065,71.73 122.821,71.761C122.055,71.857 120.991,71.773 119.953,71.731C119.426,71.71 118.905,71.665 118.504,71.756C118.411,71.921 118.296,72.131 118.218,72.298C117.834,73.122 117.351,73.925 116.9,74.263C116.343,74.681 115.685,74.924 115.012,75.142C114.677,75.25 114.329,75.333 114.047,75.545C114.013,75.57 114.007,75.614 113.99,75.651C113.945,75.751 113.909,75.855 113.869,75.958C113.727,76.32 113.587,76.682 113.403,76.997C112.839,77.96 112.039,78.93 111.26,79.709C110.743,80.226 109.519,80.836 108.207,81.181C107.005,81.497 105.754,81.575 104.965,81.402C104.894,81.481 104.822,81.558 104.754,81.638C104.615,81.801 104.527,81.987 104.647,82.343C104.921,83.16 105.286,83.442 105.67,83.725C106.182,84.103 106.704,84.492 107.221,85.181C107.589,85.672 108.46,86.324 108.591,86.487C108.919,86.896 108.993,87.285 108.972,87.613C108.941,88.113 108.653,88.498 108.473,88.672C108.347,88.795 108.187,88.909 107.996,89.004C108.165,89.363 108.28,89.683 108.314,89.89C108.41,90.465 108.26,90.88 108.055,91.198C107.905,91.429 107.705,91.627 107.45,91.774C107.498,91.829 107.539,91.88 107.571,91.922C108.145,92.688 108.656,93.41 109.207,94.25C109.296,94.387 109.371,94.58 109.424,94.763C109.546,94.89 109.676,95.02 109.819,95.13C109.967,94.918 110.203,94.628 110.411,94.495C110.808,94.241 111.224,94.184 111.612,94.254C111.861,94.3 112.115,94.398 112.355,94.593C113.057,93.95 113.835,94.087 114.284,94.317C114.685,94.522 115.004,94.856 115.218,95.314C115.298,95.485 115.363,95.682 115.422,95.884C115.428,95.903 115.435,95.929 115.441,95.955C115.626,96.164 115.895,96.338 116.175,96.285C116.294,96.262 116.543,96.191 116.77,96.124L116.771,96.109C116.923,94.934 117.95,94.754 118.078,94.731C118.535,94.649 119.018,94.723 119.463,95.147C119.694,95.367 120.005,95.859 120.211,96.531C120.388,97.107 120.543,97.883 120.652,98.41C121.123,98.303 121.614,98.216 122.029,97.973C122.175,97.888 122.32,97.733 122.478,97.615C122.796,97.379 123.134,97.206 123.467,97.123C123.979,96.995 124.427,97.063 124.843,97.245C124.971,97.3 125.164,97.415 125.303,97.503C125.476,97.544 125.637,97.613 125.783,97.705L125.797,97.714L125.845,97.747C125.921,97.767 126.001,97.787 126.062,97.801C126.391,97.874 126.666,97.968 126.787,98.028C126.923,98.096 127.085,98.046 127.252,98.024C127.703,97.963 128.171,97.826 128.612,97.72C128.791,97.678 128.966,97.641 129.138,97.611C129.237,97.137 129.391,96.743 129.58,96.405C130.006,95.644 130.624,95.132 131.419,94.716C131.824,94.504 132.287,94.317 132.789,94.091C132.897,93.852 133.028,93.569 133.083,93.475C133.346,93.026 133.729,92.638 134.174,92.295C134.533,92.017 134.954,91.786 135.25,91.49C135.525,91.215 135.534,90.849 135.606,90.512C135.724,89.959 135.855,89.412 136.106,88.911C136.254,88.615 136.473,88.367 136.765,88.179L136.765,88.086C136.765,87.683 136.577,87.367 136.429,87.029C136.11,86.302 135.823,85.545 135.823,84.59C135.823,83.872 136.188,82.952 136.782,82.032C137.32,81.199 138.07,80.332 138.335,79.663C138.394,79.515 138.395,79.268 138.429,79.015C138.502,78.461 138.61,77.889 138.787,77.475C138.876,77.266 138.982,77.081 139.101,76.921C139.216,76.351 139.459,75.767 139.729,75.236C138.865,74.676 137.864,74.216 137.08,73.595C136.669,73.27 136.289,72.829 135.908,72.405C135.774,72.255 135.65,72.099 135.507,71.985Z" style="fill:#93411f;"/>
</svg>
