<svg width="100%" height="100%" viewBox="0 0 100 100" version="1.1" xmlns="http://www.w3.org/2000/svg" xmlns:xlink="http://www.w3.org/1999/xlink" xml:space="preserve" style="fill-rule:evenodd;clip-rule:evenodd;stroke-linejoin:round;stroke-miterlimit:2;">
    <path d="M79.09,36.644C76.854,27.51 72.468,10.849 72.255,10.029C72.031,9.028 69.444,0.149 50.473,-0L49.483,-0C30.522,0.149 27.935,9.028 27.701,10.029C27.498,10.827 23.112,27.489 20.876,36.644C18.577,46.088 23.591,52.347 28.563,54.839C32.305,56.686 36.26,58.07 40.338,58.959L40.338,70.052C40.347,71.899 41.707,73.482 43.531,73.768L43.531,100L46.725,100L46.725,73.832L53.113,73.832L53.113,100L56.307,100L56.307,73.757C58.086,73.426 59.389,71.861 59.394,70.052L59.394,60.077C59.393,59.917 59.364,59.758 59.309,59.608C63.599,58.94 67.75,57.569 71.595,55.552C74.222,54.054 76.368,51.838 77.78,49.164C79.76,45.301 80.227,40.834 79.09,36.644ZM56.328,70.052C56.328,70.467 55.987,70.808 55.572,70.808L44.138,70.808C43.724,70.808 43.382,70.467 43.382,70.052L43.382,59.544C43.755,59.608 44.128,59.683 44.447,59.736C46.789,60.073 49.151,60.247 51.516,60.258C52.836,60.258 54.156,60.183 55.455,60.077L56.286,59.981L56.286,60.077L56.328,70.052ZM70.083,52.763C66.282,54.739 62.163,56.033 57.915,56.585C56.765,56.744 55.604,56.851 54.433,56.925C51.557,57.095 48.671,57.009 45.81,56.67C44.649,56.531 43.5,56.35 42.339,56.127C38.07,55.314 33.93,53.928 30.032,52.007C28.595,51.294 21.59,47.237 23.985,37.4C26.253,28.106 30.767,10.998 30.809,10.785L30.809,10.699C30.809,10.625 32.694,3.247 49.504,3.151L50.473,3.151C67.283,3.279 69.168,10.604 69.178,10.678L69.178,10.785C69.178,10.955 73.735,28.063 75.992,37.4C76.918,41.126 76.844,49.122 70.083,52.763ZM66.655,45.704L58.979,45.704C58.436,45.704 57.989,45.257 57.989,44.714L57.989,39.891C57.989,39.348 58.436,38.901 58.979,38.901L66.655,38.901C67.198,38.901 67.645,39.348 67.645,39.891L67.645,44.735C67.634,45.271 67.19,45.704 66.655,45.704ZM40.998,45.704L33.322,45.704C32.779,45.704 32.332,45.257 32.332,44.714L32.332,39.891C32.332,39.348 32.779,38.901 33.322,38.901L40.998,38.901C41.541,38.901 41.988,39.348 41.988,39.891L41.988,44.735C41.976,45.271 41.533,45.704 40.998,45.704ZM52.41,22.41L47.566,22.41C47.023,22.41 46.576,21.963 46.576,21.42L46.576,11.902C46.576,11.359 47.023,10.912 47.566,10.912L52.41,10.912C52.954,10.912 53.401,11.359 53.401,11.902L53.401,21.42C53.401,21.963 52.954,22.41 52.41,22.41Z" style="fill:#4c5563;fill-rule:nonzero;"/>
</svg>
