<svg width="100%" height="100%" viewBox="0 0 100 100" version="1.1" xmlns="http://www.w3.org/2000/svg" xmlns:xlink="http://www.w3.org/1999/xlink" xml:space="preserve" style="fill-rule:evenodd;clip-rule:evenodd;stroke-linejoin:round;stroke-miterlimit:2;">
    <path d="M47.036,0.377L44.225,0.377C40.606,0.377 37.664,3.297 37.664,6.889L37.664,20.519L26.86,14.961C26.567,14.81 26.222,14.781 25.906,14.881C25.59,14.98 25.327,15.2 25.175,15.492L22.75,20.136L21.032,19.253C15.334,16.321 8.239,18.658 5.211,24.457L1.376,31.801C-0.089,34.604 -0.396,37.792 0.512,40.777C1.423,43.775 3.448,46.209 6.213,47.632L7.931,48.515L5.542,53.09C5.389,53.382 5.359,53.723 5.461,54.036C5.561,54.35 5.783,54.61 6.077,54.761L54.226,79.529C54.25,79.541 54.274,79.545 54.297,79.555C54.314,79.595 54.311,79.638 54.332,79.677L63.356,97.05C64.179,98.635 65.805,99.621 67.601,99.623L67.608,99.623C69.401,99.623 71.028,98.641 71.853,97.06L99.461,44.194C100.287,42.612 100.157,40.724 99.119,39.269C98.082,37.813 96.333,37.063 94.554,37.309L75.313,39.971C75.221,39.879 75.126,39.79 75.009,39.73L53.597,28.716L53.597,6.89C53.597,3.298 50.655,0.377 47.036,0.377ZM94.898,39.766C95.761,39.646 96.574,39.997 97.078,40.703C97.581,41.408 97.642,42.287 97.242,43.054L69.631,95.921C69.231,96.687 68.474,97.145 67.605,97.145L67.601,97.145C66.731,97.143 65.974,96.684 65.575,95.916L56.551,78.543C56.489,78.422 56.398,78.328 56.306,78.239L75,42.442C75.128,42.465 75.256,42.484 75.392,42.466L94.898,39.766ZM72.749,41.362L54.264,76.756L8.334,53.131L26.82,17.735L37.621,23.292C37.635,23.3 37.65,23.298 37.664,23.304L37.664,40.142C35.568,42.189 34.265,45.033 34.265,48.175C34.265,54.395 39.362,59.455 45.63,59.455C51.897,59.455 56.996,54.394 56.996,48.175C56.996,45.034 55.693,42.19 53.597,40.143L53.597,31.511L72.749,41.362ZM27.066,55.565L17.092,50.434C16.481,50.119 15.723,50.356 15.407,50.965C15.089,51.573 15.329,52.322 15.942,52.638L25.916,57.769C26.098,57.863 26.296,57.908 26.49,57.908C26.941,57.908 27.378,57.663 27.601,57.238C27.918,56.63 27.68,55.881 27.066,55.565ZM45.63,39.375C50.519,39.375 54.496,43.323 54.496,48.175C54.496,53.027 50.519,56.973 45.63,56.973C40.742,56.973 36.765,53.026 36.765,48.175C36.765,43.322 40.742,39.375 45.63,39.375ZM29.828,50.275L19.855,45.144C19.246,44.829 18.487,45.066 18.17,45.675C17.852,46.283 18.092,47.032 18.705,47.348L28.678,52.479C28.861,52.573 29.058,52.618 29.252,52.618C29.703,52.618 30.141,52.373 30.363,51.948C30.681,51.34 30.442,50.591 29.828,50.275ZM7.362,45.43C5.202,44.318 3.619,42.411 2.906,40.061C2.188,37.698 2.432,35.171 3.596,32.943L7.431,25.598C9.826,21.016 15.409,19.156 19.883,21.455L21.601,22.338L9.079,46.314L7.362,45.43ZM44.225,2.858L47.036,2.858C49.276,2.858 51.097,4.667 51.097,6.89L51.097,38.29C49.474,37.402 47.611,36.894 45.63,36.894C43.649,36.894 41.786,37.402 40.164,38.29L40.164,6.89C40.164,4.667 41.985,2.858 44.225,2.858Z" style="fill:#4c5563;fill-rule:nonzero;"/>
</svg>
