<svg width="100%" height="100%" viewBox="0 0 100 100" version="1.1" xmlns="http://www.w3.org/2000/svg" xmlns:xlink="http://www.w3.org/1999/xlink" xml:space="preserve" style="fill-rule:evenodd;clip-rule:evenodd;stroke-linejoin:round;stroke-miterlimit:2;">
    <path d="M86.226,10L13.774,10C12.946,10 12.264,10.681 12.264,11.509L12.264,88.49C12.264,89.318 12.946,89.999 13.774,89.999L21.321,89.999C22.029,90.02 22.661,89.54 22.83,88.852L24.008,83.962L75.992,83.962L77.17,88.852C77.339,89.54 77.971,90.02 78.679,89.999L86.226,89.999C87.054,89.999 87.736,89.318 87.736,88.49L87.736,11.509C87.736,10.681 87.054,10 86.226,10ZM20.144,86.981L15.283,86.981L15.283,83.962L20.898,83.962L20.144,86.981ZM84.717,86.981L79.856,86.981L79.102,83.962L84.717,83.962L84.717,86.981ZM84.717,80.943L15.283,80.943L15.283,13.019L84.717,13.019L84.717,80.943ZM21.321,74.905L78.679,74.905C79.507,74.905 80.188,74.224 80.188,73.396L80.188,38.679C80.188,37.851 79.507,37.17 78.679,37.17L21.321,37.17C20.493,37.17 19.812,37.851 19.812,38.679L19.812,73.396C19.812,74.224 20.493,74.905 21.321,74.905ZM22.83,40.188L77.17,40.188L77.17,71.886L22.83,71.886L22.83,40.188ZM66.604,43.207L33.396,43.207L33.396,46.226L66.604,46.226L66.604,43.207ZM28.113,32.641C23.562,32.633 19.82,28.891 19.812,24.34C19.812,19.785 23.559,16.038 28.113,16.038C32.668,16.038 36.415,19.785 36.415,24.34C36.415,28.894 32.668,32.641 28.113,32.641ZM46.981,29.622C49.465,29.622 51.509,27.578 51.509,25.094C51.509,22.61 49.465,20.566 46.981,20.566C44.497,20.566 42.453,22.61 42.453,25.094C42.453,27.578 44.497,29.622 46.981,29.622ZM60.566,29.622C63.05,29.622 65.094,27.578 65.094,25.094C65.094,22.61 63.05,20.566 60.566,20.566C58.082,20.566 56.038,22.61 56.038,25.094C56.038,27.578 58.082,29.622 60.566,29.622ZM74.151,29.622C76.635,29.622 78.679,27.578 78.679,25.094C78.679,22.61 76.635,20.566 74.151,20.566C71.667,20.566 69.622,22.61 69.622,25.094C69.622,27.578 71.667,29.622 74.151,29.622ZM28.113,19.057C31.012,19.057 33.396,21.441 33.396,24.34C33.396,27.238 31.012,29.622 28.113,29.622C25.215,29.622 22.83,27.238 22.83,24.34C22.83,21.441 25.215,19.057 28.113,19.057ZM46.981,23.585C47.809,23.585 48.491,24.266 48.491,25.094C48.491,25.922 47.809,26.604 46.981,26.604C46.153,26.604 45.472,25.922 45.472,25.094C45.472,24.266 46.153,23.585 46.981,23.585ZM60.566,23.585C61.394,23.585 62.075,24.266 62.075,25.094C62.075,25.922 61.394,26.604 60.566,26.604C59.738,26.604 59.057,25.922 59.057,25.094C59.057,24.266 59.738,23.585 60.566,23.585ZM74.151,23.585C74.979,23.585 75.66,24.266 75.66,25.094C75.66,25.922 74.979,26.604 74.151,26.604C73.323,26.604 72.641,25.922 72.641,25.094C72.641,24.266 73.323,23.585 74.151,23.585Z" style="fill:#4c5563;"/>
</svg>
