<svg width="100%" height="100%" viewBox="0 0 993 451" version="1.1" xmlns="http://www.w3.org/2000/svg" xmlns:xlink="http://www.w3.org/1999/xlink" xml:space="preserve" style="fill-rule:evenodd;clip-rule:evenodd;stroke-linejoin:round;stroke-miterlimit:2;">
    <path d="M337.618,450.696C332.952,450.696 328.755,449.915 325.025,448.355C321.296,446.795 318.131,444.559 315.53,441.646C312.93,438.734 310.931,435.183 309.535,430.993C308.138,426.802 307.44,422.092 307.44,416.862C307.44,411.632 308.138,406.929 309.535,402.753C310.931,398.578 312.93,395.034 315.53,392.122C318.131,389.209 321.296,386.973 325.025,385.413C328.755,383.853 332.952,383.073 337.618,383.073C341.422,383.073 344.973,383.675 348.272,384.878C351.571,386.082 354.453,387.753 356.92,389.893C359.386,392.033 361.377,394.574 362.893,397.516C364.409,400.458 365.285,403.682 365.523,407.189L352.417,407.189C352.091,405.346 351.496,403.667 350.634,402.152C349.773,400.636 348.695,399.343 347.403,398.273C346.11,397.204 344.631,396.379 342.967,395.799C341.303,395.22 339.52,394.93 337.618,394.93C335.092,394.93 332.819,395.435 330.798,396.446C328.777,397.456 327.053,398.912 325.627,400.814C324.2,402.716 323.108,405.019 322.351,407.724C321.593,410.428 321.214,413.474 321.214,416.862C321.214,420.25 321.593,423.303 322.351,426.022C323.108,428.742 324.2,431.045 325.627,432.932C327.053,434.819 328.777,436.275 330.798,437.3C332.819,438.326 335.107,438.838 337.663,438.838C339.594,438.838 341.392,438.563 343.056,438.013C344.721,437.464 346.192,436.684 347.469,435.673C348.747,434.663 349.817,433.444 350.679,432.018C351.541,430.591 352.135,428.987 352.462,427.204L365.568,427.204C365.3,430.681 364.416,433.86 362.915,436.743C361.415,439.626 359.438,442.1 356.987,444.165C354.535,446.23 351.66,447.835 348.361,448.979C345.062,450.123 341.481,450.696 337.618,450.696ZM747.894,450.696C743.229,450.696 739.031,449.915 735.301,448.355C731.572,446.795 728.407,444.559 725.806,441.646C723.206,438.734 721.208,435.183 719.811,430.993C718.414,426.802 717.716,422.092 717.716,416.862C717.716,411.632 718.414,406.929 719.811,402.753C721.208,398.578 723.206,395.034 725.806,392.122C728.407,389.209 731.572,386.973 735.301,385.413C739.031,383.853 743.229,383.073 747.894,383.073C751.698,383.073 755.249,383.675 758.548,384.878C761.847,386.082 764.729,387.753 767.196,389.893C769.662,392.033 771.654,394.574 773.169,397.516C774.685,400.458 775.561,403.682 775.799,407.189L762.694,407.189C762.367,405.346 761.772,403.667 760.911,402.152C760.049,400.636 758.971,399.343 757.679,398.273C756.386,397.204 754.908,396.379 753.243,395.799C751.579,395.22 749.796,394.93 747.894,394.93C745.368,394.93 743.095,395.435 741.074,396.446C739.053,397.456 737.33,398.912 735.903,400.814C734.477,402.716 733.385,405.019 732.627,407.724C731.869,410.428 731.49,413.474 731.49,416.862C731.49,420.25 731.869,423.303 732.627,426.022C733.385,428.742 734.477,431.045 735.903,432.932C737.33,434.819 739.053,436.275 741.074,437.3C743.095,438.326 745.383,438.838 747.939,438.838C749.87,438.838 751.668,438.563 753.333,438.013C754.997,437.464 756.468,436.684 757.746,435.673C759.023,434.663 760.093,433.444 760.955,432.018C761.817,430.591 762.411,428.987 762.738,427.204L775.844,427.204C775.576,430.681 774.692,433.86 773.191,436.743C771.691,439.626 769.714,442.1 767.263,444.165C764.811,446.23 761.936,447.835 758.637,448.979C755.338,450.123 751.758,450.696 747.894,450.696ZM42.615,449.046L0,449.046L0,384.722L42.615,384.722L42.615,396.223L13.462,396.223L13.462,411.245L40.966,411.245L40.966,421.899L13.462,421.899L13.462,437.545L42.615,437.545L42.615,449.046ZM644.032,449.046L644.032,384.722L657.495,384.722L657.495,449.046L644.032,449.046ZM146.343,449.046L104.263,449.046L104.263,384.722L117.725,384.722L117.725,437.323L146.343,437.323L146.343,449.046ZM992.126,449.046L950.046,449.046L950.046,384.722L963.508,384.722L963.508,437.323L992.126,437.323L992.126,449.046ZM248.645,449.046L206.03,449.046L206.03,384.722L248.645,384.722L248.645,396.223L219.492,396.223L219.492,411.245L246.996,411.245L246.996,421.899L219.492,421.899L219.492,437.545L248.645,437.545L248.645,449.046ZM546.634,449.046L533.172,449.046L533.172,384.722L560.186,384.722C563.722,384.722 566.902,385.198 569.725,386.149C572.548,387.1 574.94,388.467 576.902,390.25C578.863,392.033 580.371,394.195 581.426,396.736C582.481,399.276 583.009,402.152 583.009,405.361C583.009,407.412 582.749,409.38 582.229,411.267C581.709,413.155 580.951,414.893 579.955,416.483C578.96,418.073 577.734,419.477 576.278,420.695C574.822,421.914 573.172,422.895 571.33,423.638L584.881,449.046L569.636,449.046L557.645,425.733L546.634,425.733L546.634,449.046ZM441.034,449.046L441.034,396.223L421.732,396.223L421.732,384.722L473.798,384.722L473.798,396.223L454.496,396.223L454.496,449.046L441.034,449.046ZM872.172,433.712L849.572,433.712L844.624,449.046L831.117,449.046L853.45,384.722L869.275,384.722L891.607,449.046L877.031,449.046L872.172,433.712ZM852.469,423.325L869.319,423.325L861.34,398.095L860.538,398.095L852.469,423.325ZM546.634,415.391L558.447,415.391C561.865,415.391 564.51,414.529 566.382,412.805C568.254,411.082 569.19,408.66 569.19,405.539C569.19,404.024 568.937,402.649 568.432,401.416C567.927,400.183 567.206,399.135 566.27,398.273C565.334,397.412 564.19,396.75 562.838,396.29C561.486,395.829 559.978,395.599 558.313,395.599L546.634,395.599L546.634,415.391ZM475.177,272.53L475.177,304.954L293.969,304.954L293.969,0L475.177,0L475.177,32.425L329.882,32.425L329.882,132.776L466.968,132.776L466.968,165.201L329.882,165.201L329.882,272.53L475.177,272.53ZM644.822,304.954L609.32,304.954L609.32,32.014L515.74,32.014L515.74,0L750.856,0L738.197,32.014L644.822,32.014L644.822,304.954ZM764.75,304.954L728.016,304.954L837.808,0L872.49,0L981.872,304.954L943.29,304.954L911.687,210.964L796.354,210.964L764.75,304.954ZM142.01,138.876L218.082,139.54L43.446,272.986L244.962,272.986L244.962,304.954L1.611,304.954L105.158,165.174L28.623,165.09L203.07,31.968L1.611,31.968L1.611,0L244.962,0L142.01,138.876ZM854.841,43.917L853.61,43.917L806.615,182.029L901.836,182.029L854.841,43.917Z" style="fill-rule:nonzero;"/>
</svg>
